<svg version="1.1" xmlns="http://www.w3.org/2000/svg" xmlns:xlink="http://www.w3.org/1999/xlink" width="1491.9912109375" height="892"><defs/><g><g transform="translate(-94,-6) scale(1,1)"><rect fill="#C0C0C0" stroke="none" x="311" y="23" width="1024" height="872" opacity="0.2"/></g><g transform="translate(-94,-6) scale(1,1)"><rect fill="#ffffff" stroke="none" x="304" y="16" width="1024" height="872"/></g><g transform="translate(-94,-6) scale(1,1)"><path fill="none" stroke="#000000" d="M 304 16 L 1328 16 L 1328 888 L 304 888 L 304 16 Z Z" stroke-miterlimit="10"/></g><g transform="translate(-94,-6) scale(1,1)"><g><path fill="none" stroke="none"/><text fill="#000000" stroke="none" font-family="Arial" font-size="13px" font-style="normal" font-weight="bold" text-decoration="none" x="682.66748046875" y="35.5">Quản lý cửa hàng áo Custom All-In-One Store</text></g></g><g transform="translate(-94,-6) scale(1,1)"><path fill="#ffffff" stroke="none" d="M 208.40935031960228 169.68 C 208.40935031960228 164.886167936 212.29519264454774 161 217.088623046875 161 C 221.88205344920226 161 225.76789577414772 164.886167936 225.76789577414772 169.68 C 225.76789577414772 174.47383206400002 221.88205344920226 178.36 217.088623046875 178.36 C 212.29519264454774 178.36 208.40935031960228 174.47383206400002 208.40935031960228 169.68 Z"/></g><g transform="translate(-94,-6) scale(1,1)"><path fill="none" stroke="#000000" d="M 208.40935031960228 169.68 C 208.40935031960228 164.886167936 212.29519264454774 161 217.088623046875 161 C 221.88205344920226 161 225.76789577414772 164.886167936 225.76789577414772 169.68 C 225.76789577414772 174.47383206400002 221.88205344920226 178.36 217.088623046875 178.36 C 212.29519264454774 178.36 208.40935031960228 174.47383206400002 208.40935031960228 169.68 Z" stroke-miterlimit="10"/></g><g transform="translate(-94,-6) scale(1,1)"><path fill="none" stroke="#000000" d="M 217.088623046875 178.36 L 217.088623046875 195.64" stroke-miterlimit="10"/></g><g transform="translate(-94,-6) scale(1,1)"><path fill="none" stroke="#000000" d="M 207.89880486505683 184.84 L 226.27844122869317 184.84" stroke-miterlimit="10"/></g><g transform="translate(-94,-6) scale(1,1)"><path fill="none" stroke="#000000" d="M 217.088623046875 195.64 L 204.32498668323865 213" stroke-miterlimit="10"/></g><g transform="translate(-94,-6) scale(1,1)"><path fill="none" stroke="#000000" d="M 217.088623046875 195.64 L 229.85225941051135 213" stroke-miterlimit="10"/></g><g transform="translate(-94,-6) scale(1,1)"><g><path fill="none" stroke="none"/><text fill="#000000" stroke="none" font-family="Arial" font-size="13px" font-style="normal" font-weight="bold" text-decoration="none" x="198.66455078125" y="233.5">Admin</text></g></g><g transform="translate(-94,-6) scale(1,1)"><path fill="#ffffff" stroke="none" d="M 130.88298313210228 521.6800000000001 C 130.88298313210228 516.8861679360001 134.76882545704774 513 139.562255859375 513 C 144.35568626170226 513 148.24152858664772 516.8861679360001 148.24152858664772 521.6800000000001 C 148.24152858664772 526.473832064 144.35568626170226 530.36 139.562255859375 530.36 C 134.76882545704774 530.36 130.88298313210228 526.473832064 130.88298313210228 521.6800000000001 Z"/></g><g transform="translate(-94,-6) scale(1,1)"><path fill="none" stroke="#000000" d="M 130.88298313210228 521.6800000000001 C 130.88298313210228 516.8861679360001 134.76882545704774 513 139.562255859375 513 C 144.35568626170226 513 148.24152858664772 516.8861679360001 148.24152858664772 521.6800000000001 C 148.24152858664772 526.473832064 144.35568626170226 530.36 139.562255859375 530.36 C 134.76882545704774 530.36 130.88298313210228 526.473832064 130.88298313210228 521.6800000000001 Z" stroke-miterlimit="10"/></g><g transform="translate(-94,-6) scale(1,1)"><path fill="none" stroke="#000000" d="M 139.562255859375 530.36 L 139.562255859375 547.64" stroke-miterlimit="10"/></g><g transform="translate(-94,-6) scale(1,1)"><path fill="none" stroke="#000000" d="M 130.37243767755683 536.84 L 148.75207404119317 536.84" stroke-miterlimit="10"/></g><g transform="translate(-94,-6) scale(1,1)"><path fill="none" stroke="#000000" d="M 139.562255859375 547.64 L 126.79861949573865 565" stroke-miterlimit="10"/></g><g transform="translate(-94,-6) scale(1,1)"><path fill="none" stroke="#000000" d="M 139.562255859375 547.64 L 152.32589222301135 565" stroke-miterlimit="10"/></g><g transform="translate(-94,-6) scale(1,1)"><g><path fill="none" stroke="none"/><text fill="#000000" stroke="none" font-family="Arial" font-size="13px" font-style="normal" font-weight="bold" text-decoration="none" x="110.293212890625" y="585.5">Nhân viên</text></g></g><g transform="translate(-94,-6) scale(1,1)"><path fill="#ffffff" stroke="none" d="M 1499.3163327414773 209.68 C 1499.3163327414773 204.886167936 1503.2021750664228 201 1507.99560546875 201 C 1512.7890358710772 201 1516.6748781960227 204.886167936 1516.6748781960227 209.68 C 1516.6748781960227 214.47383206400002 1512.7890358710772 218.36 1507.99560546875 218.36 C 1503.2021750664228 218.36 1499.3163327414773 214.47383206400002 1499.3163327414773 209.68 Z"/></g><g transform="translate(-94,-6) scale(1,1)"><path fill="none" stroke="#000000" d="M 1499.3163327414773 209.68 C 1499.3163327414773 204.886167936 1503.2021750664228 201 1507.99560546875 201 C 1512.7890358710772 201 1516.6748781960227 204.886167936 1516.6748781960227 209.68 C 1516.6748781960227 214.47383206400002 1512.7890358710772 218.36 1507.99560546875 218.36 C 1503.2021750664228 218.36 1499.3163327414773 214.47383206400002 1499.3163327414773 209.68 Z" stroke-miterlimit="10"/></g><g transform="translate(-94,-6) scale(1,1)"><path fill="none" stroke="#000000" d="M 1507.99560546875 218.36 L 1507.99560546875 235.64" stroke-miterlimit="10"/></g><g transform="translate(-94,-6) scale(1,1)"><path fill="none" stroke="#000000" d="M 1498.8057872869317 224.84 L 1517.1854236505683 224.84" stroke-miterlimit="10"/></g><g transform="translate(-94,-6) scale(1,1)"><path fill="none" stroke="#000000" d="M 1507.99560546875 235.64 L 1495.2319691051136 253" stroke-miterlimit="10"/></g><g transform="translate(-94,-6) scale(1,1)"><path fill="none" stroke="#000000" d="M 1507.99560546875 235.64 L 1520.7592418323864 253" stroke-miterlimit="10"/></g><g transform="translate(-94,-6) scale(1,1)"><g><path fill="none" stroke="none"/><text fill="#000000" stroke="none" font-family="Arial" font-size="13px" font-style="normal" font-weight="bold" text-decoration="none" x="1449.15283203125" y="273.5">Người dùng vãng lai</text></g></g><g transform="translate(-94,-6) scale(1,1)"><path fill="#ffffff" stroke="none" d="M 1514.3922604758523 617.6800000000001 C 1514.3922604758523 612.8861679360001 1518.2781028007978 609 1523.071533203125 609 C 1527.8649636054522 609 1531.7508059303977 612.8861679360001 1531.7508059303977 617.6800000000001 C 1531.7508059303977 622.473832064 1527.8649636054522 626.36 1523.071533203125 626.36 C 1518.2781028007978 626.36 1514.3922604758523 622.473832064 1514.3922604758523 617.6800000000001 Z"/></g><g transform="translate(-94,-6) scale(1,1)"><path fill="none" stroke="#000000" d="M 1514.3922604758523 617.6800000000001 C 1514.3922604758523 612.8861679360001 1518.2781028007978 609 1523.071533203125 609 C 1527.8649636054522 609 1531.7508059303977 612.8861679360001 1531.7508059303977 617.6800000000001 C 1531.7508059303977 622.473832064 1527.8649636054522 626.36 1523.071533203125 626.36 C 1518.2781028007978 626.36 1514.3922604758523 622.473832064 1514.3922604758523 617.6800000000001 Z" stroke-miterlimit="10"/></g><g transform="translate(-94,-6) scale(1,1)"><path fill="none" stroke="#000000" d="M 1523.071533203125 626.36 L 1523.071533203125 643.64" stroke-miterlimit="10"/></g><g transform="translate(-94,-6) scale(1,1)"><path fill="none" stroke="#000000" d="M 1513.8817150213067 632.84 L 1532.2613513849433 632.84" stroke-miterlimit="10"/></g><g transform="translate(-94,-6) scale(1,1)"><path fill="none" stroke="#000000" d="M 1523.071533203125 643.64 L 1510.3078968394886 661" stroke-miterlimit="10"/></g><g transform="translate(-94,-6) scale(1,1)"><path fill="none" stroke="#000000" d="M 1523.071533203125 643.64 L 1535.8351695667614 661" stroke-miterlimit="10"/></g><g transform="translate(-94,-6) scale(1,1)"><g><path fill="none" stroke="none"/><text fill="#000000" stroke="none" font-family="Arial" font-size="13px" font-style="normal" font-weight="bold" text-decoration="none" x="1488.438720703125" y="681.5">Người dùng</text></g></g><g transform="translate(-94,-6) scale(1,1)"><path fill="#C0C0C0" stroke="none" d="M 767 416 C 767 406.6111584 791.1766208 399 821 399 C 850.8233792 399 875 406.6111584 875 416 C 875 425.3888416 850.8233792 433 821 433 C 791.1766208 433 767 425.3888416 767 416 Z" opacity="0.2"/></g><g transform="translate(-94,-6) scale(1,1)"><path fill="#ffffff" stroke="none" d="M 760 409 C 760 399.6111584 784.1766208 392 814 392 C 843.8233792 392 868 399.6111584 868 409 C 868 418.3888416 843.8233792 426 814 426 C 784.1766208 426 760 418.3888416 760 409 Z"/></g><g transform="translate(-94,-6) scale(1,1)"><path fill="none" stroke="#000000" d="M 760 409 C 760 399.6111584 784.1766208 392 814 392 C 843.8233792 392 868 399.6111584 868 409 C 868 418.3888416 843.8233792 426 814 426 C 784.1766208 426 760 418.3888416 760 409 Z" stroke-miterlimit="10"/></g><g transform="translate(-94,-6) scale(1,1)"><g><path fill="none" stroke="none"/><text fill="#000000" stroke="none" font-family="Arial" font-size="13px" font-style="normal" font-weight="bold" text-decoration="none" x="782.195068359375" y="416">Đăng nhập</text></g></g><g transform="translate(-94,-6) scale(1,1)"><path fill="#C0C0C0" stroke="none" d="M 487 192 C 487 182.6111584 525.2796496 175 572.5 175 C 619.7203504 175 658 182.6111584 658 192 C 658 201.3888416 619.7203504 209 572.5 209 C 525.2796496 209 487 201.3888416 487 192 Z" opacity="0.2"/></g><g transform="translate(-94,-6) scale(1,1)"><path fill="#ffffff" stroke="none" d="M 480 185 C 480 175.6111584 518.2796496 168 565.5 168 C 612.7203504 168 651 175.6111584 651 185 C 651 194.3888416 612.7203504 202 565.5 202 C 518.2796496 202 480 194.3888416 480 185 Z"/></g><g transform="translate(-94,-6) scale(1,1)"><path fill="none" stroke="#000000" d="M 480 185 C 480 175.6111584 518.2796496 168 565.5 168 C 612.7203504 168 651 175.6111584 651 185 C 651 194.3888416 612.7203504 202 565.5 202 C 518.2796496 202 480 194.3888416 480 185 Z" stroke-miterlimit="10"/></g><g transform="translate(-94,-6) scale(1,1)"><g><path fill="none" stroke="none"/><text fill="#000000" stroke="none" font-family="Arial" font-size="13px" font-style="normal" font-weight="bold" text-decoration="none" x="513.103271484375" y="192">Quản lý nhân viên</text></g></g><g transform="translate(-94,-6) scale(1,1)"><path fill="#C0C0C0" stroke="none" d="M 487 256 C 487 246.6111584 526.8466528 239 576 239 C 625.1533472 239 665 246.6111584 665 256 C 665 265.3888416 625.1533472 273 576 273 C 526.8466528 273 487 265.3888416 487 256 Z" opacity="0.2"/></g><g transform="translate(-94,-6) scale(1,1)"><path fill="#ffffff" stroke="none" d="M 480 249 C 480 239.6111584 519.8466528 232 569 232 C 618.1533472 232 658 239.6111584 658 249 C 658 258.3888416 618.1533472 266 569 266 C 519.8466528 266 480 258.3888416 480 249 Z"/></g><g transform="translate(-94,-6) scale(1,1)"><path fill="none" stroke="#000000" d="M 480 249 C 480 239.6111584 519.8466528 232 569 232 C 618.1533472 232 658 239.6111584 658 249 C 658 258.3888416 618.1533472 266 569 266 C 519.8466528 266 480 258.3888416 480 249 Z" stroke-miterlimit="10"/></g><g transform="translate(-94,-6) scale(1,1)"><g><path fill="none" stroke="none"/><text fill="#000000" stroke="none" font-family="Arial" font-size="13px" font-style="normal" font-weight="bold" text-decoration="none" x="514.0673828125" y="256">Quản lý nhập hàng</text></g></g><g transform="translate(-94,-6) scale(1,1)"><path fill="#C0C0C0" stroke="none" d="M 487 312 C 487 302.6111584 528.8613712 295 580.5 295 C 632.1386288 295 674 302.6111584 674 312 C 674 321.3888416 632.1386288 329 580.5 329 C 528.8613712 329 487 321.3888416 487 312 Z" opacity="0.2"/></g><g transform="translate(-94,-6) scale(1,1)"><path fill="#ffffff" stroke="none" d="M 480 305 C 480 295.6111584 521.8613712 288 573.5 288 C 625.1386288 288 667 295.6111584 667 305 C 667 314.3888416 625.1386288 322 573.5 322 C 521.8613712 322 480 314.3888416 480 305 Z"/></g><g transform="translate(-94,-6) scale(1,1)"><path fill="none" stroke="#000000" d="M 480 305 C 480 295.6111584 521.8613712 288 573.5 288 C 625.1386288 288 667 295.6111584 667 305 C 667 314.3888416 625.1386288 322 573.5 322 C 521.8613712 322 480 314.3888416 480 305 Z" stroke-miterlimit="10"/></g><g transform="translate(-94,-6) scale(1,1)"><g><path fill="none" stroke="none"/><text fill="#000000" stroke="none" font-family="Arial" font-size="13px" font-style="normal" font-weight="bold" text-decoration="none" x="515.682373046875" y="312">Quản lý khách hàng</text></g></g><g transform="translate(-94,-6) scale(1,1)"><path fill="#C0C0C0" stroke="none" d="M 487 368 C 487 358.6111584 525.2796496 351 572.5 351 C 619.7203504 351 658 358.6111584 658 368 C 658 377.3888416 619.7203504 385 572.5 385 C 525.2796496 385 487 377.3888416 487 368 Z" opacity="0.2"/></g><g transform="translate(-94,-6) scale(1,1)"><path fill="#ffffff" stroke="none" d="M 480 361 C 480 351.6111584 518.2796496 344 565.5 344 C 612.7203504 344 651 351.6111584 651 361 C 651 370.3888416 612.7203504 378 565.5 378 C 518.2796496 378 480 370.3888416 480 361 Z"/></g><g transform="translate(-94,-6) scale(1,1)"><path fill="none" stroke="#000000" d="M 480 361 C 480 351.6111584 518.2796496 344 565.5 344 C 612.7203504 344 651 351.6111584 651 361 C 651 370.3888416 612.7203504 378 565.5 378 C 518.2796496 378 480 370.3888416 480 361 Z" stroke-miterlimit="10"/></g><g transform="translate(-94,-6) scale(1,1)"><g><path fill="none" stroke="none"/><text fill="#000000" stroke="none" font-family="Arial" font-size="13px" font-style="normal" font-weight="bold" text-decoration="none" x="512.747802734375" y="368">Quản lý sản phẩm</text></g></g><g transform="translate(-94,-6) scale(1,1)"><path fill="#C0C0C0" stroke="none" d="M 407 128 C 407 118.6111584 492.5136032 111 598 111 C 703.4863968 111 789 118.6111584 789 128 C 789 137.3888416 703.4863968 145 598 145 C 492.5136032 145 407 137.3888416 407 128 Z" opacity="0.2"/></g><g transform="translate(-94,-6) scale(1,1)"><path fill="#ffffff" stroke="none" d="M 400 121 C 400 111.6111584 485.5136032 104 591 104 C 696.4863968 104 782 111.6111584 782 121 C 782 130.3888416 696.4863968 138 591 138 C 485.5136032 138 400 130.3888416 400 121 Z"/></g><g transform="translate(-94,-6) scale(1,1)"><path fill="none" stroke="#000000" d="M 400 121 C 400 111.6111584 485.5136032 104 591 104 C 696.4863968 104 782 111.6111584 782 121 C 782 130.3888416 696.4863968 138 591 138 C 485.5136032 138 400 130.3888416 400 121 Z" stroke-miterlimit="10"/></g><g transform="translate(-94,-6) scale(1,1)"><g><path fill="none" stroke="none"/><text fill="#000000" stroke="none" font-family="Arial" font-size="13px" font-style="normal" font-weight="bold" text-decoration="none" x="469.66455078125" y="128">Quản lý chương trìn tích điểm khuyến mại</text></g></g><g transform="translate(-94,-6) scale(1,1)"><path fill="none" stroke="#000000" d="M 652 378 L 759 398" stroke-miterlimit="10" stroke-dasharray="3"/></g><g transform="translate(-94,-6) scale(1,1)"><path fill="none" stroke="#000000" d="M 748.2369033556453 400.2706278039958 L 759 398 L 749.7837650584544 391.9949176939667" stroke-miterlimit="10"/></g><g transform="translate(-94,-6) scale(1,1)"><g><path fill="none" stroke="none"/><text fill="#000000" stroke="none" font-family="Arial" font-size="13px" font-style="normal" font-weight="normal" text-decoration="none" x="682.5" y="364.5">«include»</text></g></g><g transform="translate(-94,-6) scale(1,1)"><path fill="none" stroke="#000000" d="M 615 323 L 772 391" stroke-miterlimit="10" stroke-dasharray="3"/></g><g transform="translate(-94,-6) scale(1,1)"><path fill="none" stroke="#000000" d="M 761.0014132519177 390.82367772430166 L 772 391 L 764.347503403783 383.09814605014196" stroke-miterlimit="10"/></g><g transform="translate(-94,-6) scale(1,1)"><g><path fill="none" stroke="none"/><text fill="#000000" stroke="none" font-family="Arial" font-size="13px" font-style="normal" font-weight="normal" text-decoration="none" x="676.5" y="335.5">«include»</text></g></g><g transform="translate(-94,-6) scale(1,1)"><path fill="none" stroke="#000000" d="M 597 267 L 786 391" stroke-miterlimit="10" stroke-dasharray="3"/></g><g transform="translate(-94,-6) scale(1,1)"><path fill="none" stroke="#000000" d="M 775.1937002706446 388.944790482862 L 786 391 L 779.812044768166 381.9055395955111" stroke-miterlimit="10"/></g><g transform="translate(-94,-6) scale(1,1)"><g><path fill="none" stroke="none"/><text fill="#000000" stroke="none" font-family="Arial" font-size="13px" font-style="normal" font-weight="normal" text-decoration="none" x="679.5" y="309.5">«include»</text></g></g><g transform="translate(-94,-6) scale(1,1)"><path fill="none" stroke="#000000" d="M 605 139 L 800 391" stroke-miterlimit="10" stroke-dasharray="3"/></g><g transform="translate(-94,-6) scale(1,1)"><path fill="none" stroke="#000000" d="M 790.4514286495125 385.538792700817 L 800 391 L 797.1097971621444 380.38648373270894" stroke-miterlimit="10"/></g><g transform="translate(-94,-6) scale(1,1)"><g><path fill="none" stroke="none"/><text fill="#000000" stroke="none" font-family="Arial" font-size="13px" font-style="normal" font-weight="normal" text-decoration="none" x="697.5" y="252.5">«include»</text></g></g><g transform="translate(-94,-6) scale(1,1)"><path fill="#C0C0C0" stroke="none" d="M 367 536 C 367 526.6111584 417.36796 519 479.5 519 C 541.63204 519 592 526.6111584 592 536 C 592 545.3888416 541.63204 553 479.5 553 C 417.36796 553 367 545.3888416 367 536 Z" opacity="0.2"/></g><g transform="translate(-94,-6) scale(1,1)"><path fill="#ffffff" stroke="none" d="M 360 529 C 360 519.6111584 410.36796 512 472.5 512 C 534.63204 512 585 519.6111584 585 529 C 585 538.3888416 534.63204 546 472.5 546 C 410.36796 546 360 538.3888416 360 529 Z"/></g><g transform="translate(-94,-6) scale(1,1)"><path fill="none" stroke="#000000" d="M 360 529 C 360 519.6111584 410.36796 512 472.5 512 C 534.63204 512 585 519.6111584 585 529 C 585 538.3888416 534.63204 546 472.5 546 C 410.36796 546 360 538.3888416 360 529 Z" stroke-miterlimit="10"/></g><g transform="translate(-94,-6) scale(1,1)"><g><path fill="none" stroke="none"/><text fill="#000000" stroke="none" font-family="Arial" font-size="13px" font-style="normal" font-weight="bold" text-decoration="none" x="402.82177734375" y="536">Xử lý hỗ trợ khách hàng</text></g></g><g transform="translate(-94,-6) scale(1,1)"><path fill="#C0C0C0" stroke="none" d="M 359 592 C 359 582.6111584 418.322264 575 491.5 575 C 564.677736 575 624 582.6111584 624 592 C 624 601.3888416 564.677736 609 491.5 609 C 418.322264 609 359 601.3888416 359 592 Z" opacity="0.2"/></g><g transform="translate(-94,-6) scale(1,1)"><path fill="#ffffff" stroke="none" d="M 352 585 C 352 575.6111584 411.322264 568 484.5 568 C 557.677736 568 617 575.6111584 617 585 C 617 594.3888416 557.677736 602 484.5 602 C 411.322264 602 352 594.3888416 352 585 Z"/></g><g transform="translate(-94,-6) scale(1,1)"><path fill="none" stroke="#000000" d="M 352 585 C 352 575.6111584 411.322264 568 484.5 568 C 557.677736 568 617 575.6111584 617 585 C 617 594.3888416 557.677736 602 484.5 602 C 411.322264 602 352 594.3888416 352 585 Z" stroke-miterlimit="10"/></g><g transform="translate(-94,-6) scale(1,1)"><g><path fill="none" stroke="none"/><text fill="#000000" stroke="none" font-family="Arial" font-size="13px" font-style="normal" font-weight="bold" text-decoration="none" x="401.091796875" y="592">Thanh toán hoá đơn tại quầy</text></g></g><g transform="translate(-94,-6) scale(1,1)"><path fill="none" stroke="#000000" d="M 523 511 L 763 427" stroke-miterlimit="10" stroke-dasharray="3"/></g><g transform="translate(-94,-6) scale(1,1)"><path fill="none" stroke="#000000" d="M 754.798490391201 434.3304324658766 L 763 427 L 752.0172584340003 426.384055445303" stroke-miterlimit="10"/></g><g transform="translate(-94,-6) scale(1,1)"><g><path fill="none" stroke="none"/><text fill="#000000" stroke="none" font-family="Arial" font-size="13px" font-style="normal" font-weight="normal" text-decoration="none" x="605.5" y="446.5">«include»</text></g></g><g transform="translate(-94,-6) scale(1,1)"><path fill="none" stroke="#000000" d="M 518 567 L 780 427" stroke-miterlimit="10" stroke-dasharray="3"/></g><g transform="translate(-94,-6) scale(1,1)"><path fill="none" stroke="#000000" d="M 773.0206157425562 435.50224649060146 L 780 427 L 769.052833914231 428.07682621187865" stroke-miterlimit="10"/></g><g transform="translate(-94,-6) scale(1,1)"><g><path fill="none" stroke="none"/><text fill="#000000" stroke="none" font-family="Arial" font-size="13px" font-style="normal" font-weight="normal" text-decoration="none" x="606.5" y="476.5">«include»</text></g></g><g transform="translate(-94,-6) scale(1,1)"><path fill="#C0C0C0" stroke="none" d="M 375 688 C 375 678.6111584 431.1882576 671 500.5 671 C 569.8117424 671 626 678.6111584 626 688 C 626 697.3888416 569.8117424 705 500.5 705 C 431.1882576 705 375 697.3888416 375 688 Z" opacity="0.2"/></g><g transform="translate(-94,-6) scale(1,1)"><path fill="#ffffff" stroke="none" d="M 368 681 C 368 671.6111584 424.1882576 664 493.5 664 C 562.8117424 664 619 671.6111584 619 681 C 619 690.3888416 562.8117424 698 493.5 698 C 424.1882576 698 368 690.3888416 368 681 Z"/></g><g transform="translate(-94,-6) scale(1,1)"><path fill="none" stroke="#000000" d="M 368 681 C 368 671.6111584 424.1882576 664 493.5 664 C 562.8117424 664 619 671.6111584 619 681 C 619 690.3888416 562.8117424 698 493.5 698 C 424.1882576 698 368 690.3888416 368 681 Z" stroke-miterlimit="10"/></g><g transform="translate(-94,-6) scale(1,1)"><g><path fill="none" stroke="none"/><text fill="#000000" stroke="none" font-family="Arial" font-size="13px" font-style="normal" font-weight="bold" text-decoration="none" x="414.36376953125" y="688">Xem xuất báo cáo thống kê</text></g></g><g transform="translate(-94,-6) scale(1,1)"><path fill="none" stroke="#000000" d="M 514 663 L 793 427" stroke-miterlimit="10" stroke-dasharray="3"/></g><g transform="translate(-94,-6) scale(1,1)"><path fill="none" stroke="#000000" d="M 787.9594875247908 436.7771792449183 L 793 427 L 782.5223097031661 430.34932919308227" stroke-miterlimit="10"/></g><g transform="translate(-94,-6) scale(1,1)"><g><path fill="none" stroke="none"/><text fill="#000000" stroke="none" font-family="Arial" font-size="13px" font-style="normal" font-weight="normal" text-decoration="none" x="605.5" y="528.5">«include»</text></g></g><g transform="translate(-94,-6) scale(1,1)"><path fill="#C0C0C0" stroke="none" d="M 1015 168 C 1015 158.6111584 1089.3207232 151 1181 151 C 1272.6792768 151 1347 158.6111584 1347 168 C 1347 177.3888416 1272.6792768 185 1181 185 C 1089.3207232 185 1015 177.3888416 1015 168 Z" opacity="0.2"/></g><g transform="translate(-94,-6) scale(1,1)"><path fill="#ffffff" stroke="none" d="M 1008 161 C 1008 151.6111584 1082.3207232 144 1174 144 C 1265.6792768 144 1340 151.6111584 1340 161 C 1340 170.3888416 1265.6792768 178 1174 178 C 1082.3207232 178 1008 170.3888416 1008 161 Z"/></g><g transform="translate(-94,-6) scale(1,1)"><path fill="none" stroke="#000000" d="M 1008 161 C 1008 151.6111584 1082.3207232 144 1174 144 C 1265.6792768 144 1340 151.6111584 1340 161 C 1340 170.3888416 1265.6792768 178 1174 178 C 1082.3207232 178 1008 170.3888416 1008 161 Z" stroke-miterlimit="10"/></g><g transform="translate(-94,-6) scale(1,1)"><g><path fill="none" stroke="none"/><text fill="#000000" stroke="none" font-family="Arial" font-size="13px" font-style="normal" font-weight="bold" text-decoration="none" x="1069.228759765625" y="168">Xem &amp; tìm kiếm nâng cao sản phẩm</text></g></g><g transform="translate(-94,-6) scale(1,1)"><path fill="#C0C0C0" stroke="none" d="M 1015 232 C 1015 222.6111584 1062.2339536 215 1120.5 215 C 1178.7660464 215 1226 222.6111584 1226 232 C 1226 241.3888416 1178.7660464 249 1120.5 249 C 1062.2339536 249 1015 241.3888416 1015 232 Z" opacity="0.2"/></g><g transform="translate(-94,-6) scale(1,1)"><path fill="#ffffff" stroke="none" d="M 1008 225 C 1008 215.6111584 1055.2339536 208 1113.5 208 C 1171.7660464 208 1219 215.6111584 1219 225 C 1219 234.3888416 1171.7660464 242 1113.5 242 C 1055.2339536 242 1008 234.3888416 1008 225 Z"/></g><g transform="translate(-94,-6) scale(1,1)"><path fill="none" stroke="#000000" d="M 1008 225 C 1008 215.6111584 1055.2339536 208 1113.5 208 C 1171.7660464 208 1219 215.6111584 1219 225 C 1219 234.3888416 1171.7660464 242 1113.5 242 C 1055.2339536 242 1008 234.3888416 1008 225 Z" stroke-miterlimit="10"/></g><g transform="translate(-94,-6) scale(1,1)"><g><path fill="none" stroke="none"/><text fill="#000000" stroke="none" font-family="Arial" font-size="13px" font-style="normal" font-weight="bold" text-decoration="none" x="1080.61279296875" y="232">Thanh toán</text></g></g><g transform="translate(-94,-6) scale(1,1)"><path fill="#C0C0C0" stroke="none" d="M 1007 400 C 1007 390.6111584 1068.7846976 383 1145 383 C 1221.2153024 383 1283 390.6111584 1283 400 C 1283 409.3888416 1221.2153024 417 1145 417 C 1068.7846976 417 1007 409.3888416 1007 400 Z" opacity="0.2"/></g><g transform="translate(-94,-6) scale(1,1)"><path fill="#ffffff" stroke="none" d="M 1000 393 C 1000 383.6111584 1061.7846976 376 1138 376 C 1214.2153024 376 1276 383.6111584 1276 393 C 1276 402.3888416 1214.2153024 410 1138 410 C 1061.7846976 410 1000 402.3888416 1000 393 Z"/></g><g transform="translate(-94,-6) scale(1,1)"><path fill="none" stroke="#000000" d="M 1000 393 C 1000 383.6111584 1061.7846976 376 1138 376 C 1214.2153024 376 1276 383.6111584 1276 393 C 1276 402.3888416 1214.2153024 410 1138 410 C 1061.7846976 410 1000 402.3888416 1000 393 Z" stroke-miterlimit="10"/></g><g transform="translate(-94,-6) scale(1,1)"><g><path fill="none" stroke="none"/><text fill="#000000" stroke="none" font-family="Arial" font-size="13px" font-style="normal" font-weight="bold" text-decoration="none" x="1050.976806640625" y="400">Đặt hàng &amp; theo dõi đơn hàng</text></g></g><g transform="translate(-94,-6) scale(1,1)"><path fill="#C0C0C0" stroke="none" d="M 1087 296 C 1087 286.6111584 1109.6096176 279 1137.5 279 C 1165.3903824 279 1188 286.6111584 1188 296 C 1188 305.3888416 1165.3903824 313 1137.5 313 C 1109.6096176 313 1087 305.3888416 1087 296 Z" opacity="0.2"/></g><g transform="translate(-94,-6) scale(1,1)"><path fill="#ffffff" stroke="none" d="M 1080 289 C 1080 279.6111584 1102.6096176 272 1130.5 272 C 1158.3903824 272 1181 279.6111584 1181 289 C 1181 298.3888416 1158.3903824 306 1130.5 306 C 1102.6096176 306 1080 298.3888416 1080 289 Z"/></g><g transform="translate(-94,-6) scale(1,1)"><path fill="none" stroke="#000000" d="M 1080 289 C 1080 279.6111584 1102.6096176 272 1130.5 272 C 1158.3903824 272 1181 279.6111584 1181 289 C 1181 298.3888416 1158.3903824 306 1130.5 306 C 1102.6096176 306 1080 298.3888416 1080 289 Z" stroke-miterlimit="10"/></g><g transform="translate(-94,-6) scale(1,1)"><g><path fill="none" stroke="none"/><text fill="#000000" stroke="none" font-family="Arial" font-size="13px" font-style="normal" font-weight="bold" text-decoration="none" x="1104.119140625" y="296">Giỏ hàng</text></g></g><g transform="translate(-94,-6) scale(1,1)"><path fill="#C0C0C0" stroke="none" d="M 1151 504 C 1151 494.6111584 1181.6684912 487 1219.5 487 C 1257.3315088 487 1288 494.6111584 1288 504 C 1288 513.3888416 1257.3315088 521 1219.5 521 C 1181.6684912 521 1151 513.3888416 1151 504 Z" opacity="0.2"/></g><g transform="translate(-94,-6) scale(1,1)"><path fill="#ffffff" stroke="none" d="M 1144 497 C 1144 487.6111584 1174.6684912 480 1212.5 480 C 1250.3315088 480 1281 487.6111584 1281 497 C 1281 506.3888416 1250.3315088 514 1212.5 514 C 1174.6684912 514 1144 506.3888416 1144 497 Z"/></g><g transform="translate(-94,-6) scale(1,1)"><path fill="none" stroke="#000000" d="M 1144 497 C 1144 487.6111584 1174.6684912 480 1212.5 480 C 1250.3315088 480 1281 487.6111584 1281 497 C 1281 506.3888416 1250.3315088 514 1212.5 514 C 1174.6684912 514 1144 506.3888416 1144 497 Z" stroke-miterlimit="10"/></g><g transform="translate(-94,-6) scale(1,1)"><g><path fill="none" stroke="none"/><text fill="#000000" stroke="none" font-family="Arial" font-size="13px" font-style="normal" font-weight="bold" text-decoration="none" x="1171.376708984375" y="504">Hủy đơn hàng</text></g></g><g transform="translate(-94,-6) scale(1,1)"><path fill="#C0C0C0" stroke="none" d="M 951 504 C 951 494.6111584 991.294368 487 1041 487 C 1090.705632 487 1131 494.6111584 1131 504 C 1131 513.3888416 1090.705632 521 1041 521 C 991.294368 521 951 513.3888416 951 504 Z" opacity="0.2"/></g><g transform="translate(-94,-6) scale(1,1)"><path fill="#ffffff" stroke="none" d="M 944 497 C 944 487.6111584 984.294368 480 1034 480 C 1083.705632 480 1124 487.6111584 1124 497 C 1124 506.3888416 1083.705632 514 1034 514 C 984.294368 514 944 506.3888416 944 497 Z"/></g><g transform="translate(-94,-6) scale(1,1)"><path fill="none" stroke="#000000" d="M 944 497 C 944 487.6111584 984.294368 480 1034 480 C 1083.705632 480 1124 487.6111584 1124 497 C 1124 506.3888416 1083.705632 514 1034 514 C 984.294368 514 944 506.3888416 944 497 Z" stroke-miterlimit="10"/></g><g transform="translate(-94,-6) scale(1,1)"><g><path fill="none" stroke="none"/><text fill="#000000" stroke="none" font-family="Arial" font-size="13px" font-style="normal" font-weight="bold" text-decoration="none" x="978.416748046875" y="504">Đáng giá đơn hàng</text></g></g><g transform="translate(-94,-6) scale(1,1)"><path fill="#C0C0C0" stroke="none" d="M 1031 704 C 1031 694.6111584 1086.5166848 687 1155 687 C 1223.4833152 687 1279 694.6111584 1279 704 C 1279 713.3888416 1223.4833152 721 1155 721 C 1086.5166848 721 1031 713.3888416 1031 704 Z" opacity="0.2"/></g><g transform="translate(-94,-6) scale(1,1)"><path fill="#ffffff" stroke="none" d="M 1024 697 C 1024 687.6111584 1079.5166848 680 1148 680 C 1216.4833152 680 1272 687.6111584 1272 697 C 1272 706.3888416 1216.4833152 714 1148 714 C 1079.5166848 714 1024 706.3888416 1024 697 Z"/></g><g transform="translate(-94,-6) scale(1,1)"><path fill="none" stroke="#000000" d="M 1024 697 C 1024 687.6111584 1079.5166848 680 1148 680 C 1216.4833152 680 1272 687.6111584 1272 697 C 1272 706.3888416 1216.4833152 714 1148 714 C 1079.5166848 714 1024 706.3888416 1024 697 Z" stroke-miterlimit="10"/></g><g transform="translate(-94,-6) scale(1,1)"><g><path fill="none" stroke="none"/><text fill="#000000" stroke="none" font-family="Arial" font-size="13px" font-style="normal" font-weight="bold" text-decoration="none" x="1070.669677734375" y="704">Xem sử dụng điểm tích lũy</text></g></g><g transform="translate(-94,-6) scale(1,1)"><path fill="#C0C0C0" stroke="none" d="M 975 808 C 975 798.6111584 997.6096176 791 1025.5 791 C 1053.3903824 791 1076 798.6111584 1076 808 C 1076 817.3888416 1053.3903824 825 1025.5 825 C 997.6096176 825 975 817.3888416 975 808 Z" opacity="0.2"/></g><g transform="translate(-94,-6) scale(1,1)"><path fill="#ffffff" stroke="none" d="M 968 801 C 968 791.6111584 990.6096176 784 1018.5 784 C 1046.3903824 784 1069 791.6111584 1069 801 C 1069 810.3888416 1046.3903824 818 1018.5 818 C 990.6096176 818 968 810.3888416 968 801 Z"/></g><g transform="translate(-94,-6) scale(1,1)"><path fill="none" stroke="#000000" d="M 968 801 C 968 791.6111584 990.6096176 784 1018.5 784 C 1046.3903824 784 1069 791.6111584 1069 801 C 1069 810.3888416 1046.3903824 818 1018.5 818 C 990.6096176 818 968 810.3888416 968 801 Z" stroke-miterlimit="10"/></g><g transform="translate(-94,-6) scale(1,1)"><g><path fill="none" stroke="none"/><text fill="#000000" stroke="none" font-family="Arial" font-size="13px" font-style="normal" font-weight="bold" text-decoration="none" x="988.15185546875" y="808">UseCase4</text></g></g><g transform="translate(-94,-6) scale(1,1)"><path fill="none" stroke="#000000" d="M 1151 411 L 1199 479" stroke-miterlimit="10" stroke-dasharray="3"/></g><g transform="translate(-94,-6) scale(1,1)"><path fill="none" stroke="#000000" d="M 1189.7003154404424 473.1249793963999 L 1199 479 L 1196.5783968934572 468.2698630766247" stroke-miterlimit="10"/></g><g transform="translate(-94,-6) scale(1,1)"><g><path fill="none" stroke="none"/><text fill="#000000" stroke="none" font-family="Arial" font-size="13px" font-style="normal" font-weight="normal" text-decoration="none" x="1171.5" y="433.5">«include»</text></g></g><g transform="translate(-94,-6) scale(1,1)"><path fill="none" stroke="#000000" d="M 1120 411 L 1052 479" stroke-miterlimit="10" stroke-dasharray="3"/></g><g transform="translate(-94,-6) scale(1,1)"><path fill="none" stroke="#000000" d="M 1056.2095177560159 468.83732514237585 L 1052 479 L 1062.162674857624 474.790482243984" stroke-miterlimit="10"/></g><g transform="translate(-94,-6) scale(1,1)"><g><path fill="none" stroke="none"/><text fill="#000000" stroke="none" font-family="Arial" font-size="13px" font-style="normal" font-weight="normal" text-decoration="none" x="1079.5" y="472.5">«include»</text></g></g><g transform="translate(-94,-6) scale(1,1)"><path fill="none" stroke="#000000" d="M 999 400 L 869 406" stroke-miterlimit="10" stroke-dasharray="3"/></g><g transform="translate(-94,-6) scale(1,1)"><path fill="none" stroke="#000000" d="M 878.9577891355946 401.3264108512797 L 869 406 L 879.3459468029446 409.7364936438646" stroke-miterlimit="10"/></g><g transform="translate(-94,-6) scale(1,1)"><g><path fill="none" stroke="none"/><text fill="#000000" stroke="none" font-family="Arial" font-size="13px" font-style="normal" font-weight="normal" text-decoration="none" x="907.5" y="438.5">«include»</text></g></g></g></svg>