<svg version="1.1" xmlns="http://www.w3.org/2000/svg" xmlns:xlink="http://www.w3.org/1999/xlink" width="1823.43212890625" height="1044"><defs/><g><g transform="translate(2,-38) scale(1,1)"><rect fill="#C0C0C0" stroke="none" x="159" y="55" width="1416" height="1024" opacity="0.2"/></g><g transform="translate(2,-38) scale(1,1)"><rect fill="#ffffff" stroke="none" x="152" y="48" width="1416" height="1024"/></g><g transform="translate(2,-38) scale(1,1)"><path fill="none" stroke="#000000" d="M 152 48 L 1568 48 L 1568 1072 L 152 1072 L 152 48 Z Z" stroke-miterlimit="10"/></g><g transform="translate(2,-38) scale(1,1)"><g><path fill="none" stroke="none"/><text fill="#000000" stroke="none" font-family="Arial" font-size="13px" font-style="normal" font-weight="bold" text-decoration="none" x="699.02978515625" y="67.5">Ứng dựng quản lý cửa hàng bán quần và áo Customize</text></g></g><g transform="translate(2,-38) scale(1,1)"><rect fill="#C0C0C0" stroke="none" x="223" y="95" width="592" height="960" opacity="0.2"/></g><g transform="translate(2,-38) scale(1,1)"><rect fill="#ffffff" stroke="none" x="216" y="88" width="592" height="960"/></g><g transform="translate(2,-38) scale(1,1)"><path fill="none" stroke="#000000" d="M 216 88 L 808 88 L 808 1048 L 216 1048 L 216 88 Z Z" stroke-miterlimit="10"/></g><g transform="translate(2,-38) scale(1,1)"><g><path fill="none" stroke="none"/><text fill="#000000" stroke="none" font-family="Arial" font-size="13px" font-style="normal" font-weight="bold" text-decoration="none" x="443.3310546875" y="107.5">Use case chủ cửa hàng</text></g></g><g transform="translate(2,-38) scale(1,1)"><rect fill="#C0C0C0" stroke="none" x="983" y="103" width="544" height="368" opacity="0.2"/></g><g transform="translate(2,-38) scale(1,1)"><rect fill="#ffffff" stroke="none" x="976" y="96" width="544" height="368"/></g><g transform="translate(2,-38) scale(1,1)"><path fill="none" stroke="#000000" d="M 976 96 L 1520 96 L 1520 464 L 976 464 L 976 96 Z Z" stroke-miterlimit="10"/></g><g transform="translate(2,-38) scale(1,1)"><g><path fill="none" stroke="none"/><text fill="#000000" stroke="none" font-family="Arial" font-size="13px" font-style="normal" font-weight="bold" text-decoration="none" x="1161.33544921875" y="115.5">Use case người dùng vãng lai</text></g></g><g transform="translate(2,-38) scale(1,1)"><rect fill="#C0C0C0" stroke="none" x="983" y="487" width="544" height="584" opacity="0.2"/></g><g transform="translate(2,-38) scale(1,1)"><rect fill="#ffffff" stroke="none" x="976" y="480" width="544" height="584"/></g><g transform="translate(2,-38) scale(1,1)"><path fill="none" stroke="#000000" d="M 976 480 L 1520 480 L 1520 1064 L 976 1064 L 976 480 Z Z" stroke-miterlimit="10"/></g><g transform="translate(2,-38) scale(1,1)"><g><path fill="none" stroke="none"/><text fill="#000000" stroke="none" font-family="Arial" font-size="13px" font-style="normal" font-weight="bold" text-decoration="none" x="1148.687744140625" y="499.5">Use case người dùng có tài khoản</text></g></g><g transform="translate(2,-38) scale(1,1)"><path fill="#ffffff" stroke="none" d="M 47.53068821022727 545.6800000000001 C 47.53068821022727 540.8861679360001 51.416530535172726 537 56.2099609375 537 C 61.003391339827274 537 64.88923366477273 540.8861679360001 64.88923366477273 545.6800000000001 C 64.88923366477273 550.473832064 61.003391339827274 554.36 56.2099609375 554.36 C 51.416530535172726 554.36 47.53068821022727 550.473832064 47.53068821022727 545.6800000000001 Z"/></g><g transform="translate(2,-38) scale(1,1)"><path fill="none" stroke="#000000" d="M 47.53068821022727 545.6800000000001 C 47.53068821022727 540.8861679360001 51.416530535172726 537 56.2099609375 537 C 61.003391339827274 537 64.88923366477273 540.8861679360001 64.88923366477273 545.6800000000001 C 64.88923366477273 550.473832064 61.003391339827274 554.36 56.2099609375 554.36 C 51.416530535172726 554.36 47.53068821022727 550.473832064 47.53068821022727 545.6800000000001 Z" stroke-miterlimit="10"/></g><g transform="translate(2,-38) scale(1,1)"><path fill="none" stroke="#000000" d="M 56.2099609375 554.36 L 56.2099609375 571.64" stroke-miterlimit="10"/></g><g transform="translate(2,-38) scale(1,1)"><path fill="none" stroke="#000000" d="M 47.02014275568182 560.84 L 65.39977911931818 560.84" stroke-miterlimit="10"/></g><g transform="translate(2,-38) scale(1,1)"><path fill="none" stroke="#000000" d="M 56.2099609375 571.64 L 43.446324573863635 589" stroke-miterlimit="10"/></g><g transform="translate(2,-38) scale(1,1)"><path fill="none" stroke="#000000" d="M 56.2099609375 571.64 L 68.97359730113637 589" stroke-miterlimit="10"/></g><g transform="translate(2,-38) scale(1,1)"><g><path fill="none" stroke="none"/><text fill="#000000" stroke="none" font-family="Arial" font-size="13px" font-style="normal" font-weight="bold" text-decoration="none" x="14.997802734375" y="609.5">Chủ cửa hàng</text></g></g><g transform="translate(2,-38) scale(1,1)"><path fill="#ffffff" stroke="none" d="M 1721.0367917258523 769.6800000000001 C 1721.0367917258523 764.8861679360001 1724.9226340507978 761 1729.716064453125 761 C 1734.5094948554522 761 1738.3953371803977 764.8861679360001 1738.3953371803977 769.6800000000001 C 1738.3953371803977 774.473832064 1734.5094948554522 778.36 1729.716064453125 778.36 C 1724.9226340507978 778.36 1721.0367917258523 774.473832064 1721.0367917258523 769.6800000000001 Z"/></g><g transform="translate(2,-38) scale(1,1)"><path fill="none" stroke="#000000" d="M 1721.0367917258523 769.6800000000001 C 1721.0367917258523 764.8861679360001 1724.9226340507978 761 1729.716064453125 761 C 1734.5094948554522 761 1738.3953371803977 764.8861679360001 1738.3953371803977 769.6800000000001 C 1738.3953371803977 774.473832064 1734.5094948554522 778.36 1729.716064453125 778.36 C 1724.9226340507978 778.36 1721.0367917258523 774.473832064 1721.0367917258523 769.6800000000001 Z" stroke-miterlimit="10"/></g><g transform="translate(2,-38) scale(1,1)"><path fill="none" stroke="#000000" d="M 1729.716064453125 778.36 L 1729.716064453125 795.64" stroke-miterlimit="10"/></g><g transform="translate(2,-38) scale(1,1)"><path fill="none" stroke="#000000" d="M 1720.5262462713067 784.84 L 1738.9058826349433 784.84" stroke-miterlimit="10"/></g><g transform="translate(2,-38) scale(1,1)"><path fill="none" stroke="#000000" d="M 1729.716064453125 795.64 L 1716.9524280894886 813" stroke-miterlimit="10"/></g><g transform="translate(2,-38) scale(1,1)"><path fill="none" stroke="#000000" d="M 1729.716064453125 795.64 L 1742.4797008167614 813" stroke-miterlimit="10"/></g><g transform="translate(2,-38) scale(1,1)"><g><path fill="none" stroke="none"/><text fill="#000000" stroke="none" font-family="Arial" font-size="13px" font-style="normal" font-weight="bold" text-decoration="none" x="1658.2255859375" y="833.5">Người dùng có tài khoản</text></g></g><g transform="translate(2,-38) scale(1,1)"><path fill="#ffffff" stroke="none" d="M 1707.3163327414773 297.68 C 1707.3163327414773 292.886167936 1711.2021750664228 289 1715.99560546875 289 C 1720.7890358710772 289 1724.6748781960227 292.886167936 1724.6748781960227 297.68 C 1724.6748781960227 302.473832064 1720.7890358710772 306.36 1715.99560546875 306.36 C 1711.2021750664228 306.36 1707.3163327414773 302.473832064 1707.3163327414773 297.68 Z"/></g><g transform="translate(2,-38) scale(1,1)"><path fill="none" stroke="#000000" d="M 1707.3163327414773 297.68 C 1707.3163327414773 292.886167936 1711.2021750664228 289 1715.99560546875 289 C 1720.7890358710772 289 1724.6748781960227 292.886167936 1724.6748781960227 297.68 C 1724.6748781960227 302.473832064 1720.7890358710772 306.36 1715.99560546875 306.36 C 1711.2021750664228 306.36 1707.3163327414773 302.473832064 1707.3163327414773 297.68 Z" stroke-miterlimit="10"/></g><g transform="translate(2,-38) scale(1,1)"><path fill="none" stroke="#000000" d="M 1715.99560546875 306.36 L 1715.99560546875 323.64" stroke-miterlimit="10"/></g><g transform="translate(2,-38) scale(1,1)"><path fill="none" stroke="#000000" d="M 1706.8057872869317 312.84 L 1725.1854236505683 312.84" stroke-miterlimit="10"/></g><g transform="translate(2,-38) scale(1,1)"><path fill="none" stroke="#000000" d="M 1715.99560546875 323.64 L 1703.2319691051136 341" stroke-miterlimit="10"/></g><g transform="translate(2,-38) scale(1,1)"><path fill="none" stroke="#000000" d="M 1715.99560546875 323.64 L 1728.7592418323864 341" stroke-miterlimit="10"/></g><g transform="translate(2,-38) scale(1,1)"><g><path fill="none" stroke="none"/><text fill="#000000" stroke="none" font-family="Arial" font-size="13px" font-style="normal" font-weight="bold" text-decoration="none" x="1657.15283203125" y="361.5">Người dùng vãng lai</text></g></g><g transform="translate(2,-38) scale(1,1)"><path fill="#C0C0C0" stroke="none" d="M 327 544 C 327 534.6111584 382.2928272 527 450.5 527 C 518.7071728 527 574 534.6111584 574 544 C 574 553.3888416 518.7071728 561 450.5 561 C 382.2928272 561 327 553.3888416 327 544 Z" opacity="0.2"/></g><g transform="translate(2,-38) scale(1,1)"><path fill="#ffffff" stroke="none" d="M 320 537 C 320 527.6111584 375.2928272 520 443.5 520 C 511.7071728 520 567 527.6111584 567 537 C 567 546.3888416 511.7071728 554 443.5 554 C 375.2928272 554 320 546.3888416 320 537 Z"/></g><g transform="translate(2,-38) scale(1,1)"><path fill="none" stroke="#000000" d="M 320 537 C 320 527.6111584 375.2928272 520 443.5 520 C 511.7071728 520 567 527.6111584 567 537 C 567 546.3888416 511.7071728 554 443.5 554 C 375.2928272 554 320 546.3888416 320 537 Z" stroke-miterlimit="10"/></g><g transform="translate(2,-38) scale(1,1)"><g><path fill="none" stroke="none"/><text fill="#000000" stroke="none" font-family="Arial" font-size="13px" font-style="normal" font-weight="bold" text-decoration="none" x="396.162353515625" y="544">Quản lý biến thể</text></g></g><g transform="translate(2,-38) scale(1,1)"><path fill="#C0C0C0" stroke="none" d="M 391 232 C 391 222.6111584 428.1603616 215 474 215 C 519.8396384 215 557 222.6111584 557 232 C 557 241.3888416 519.8396384 249 474 249 C 428.1603616 249 391 241.3888416 391 232 Z" opacity="0.2"/></g><g transform="translate(2,-38) scale(1,1)"><path fill="#ffffff" stroke="none" d="M 384 225 C 384 215.6111584 421.1603616 208 467 208 C 512.8396384 208 550 215.6111584 550 225 C 550 234.3888416 512.8396384 242 467 242 C 421.1603616 242 384 234.3888416 384 225 Z"/></g><g transform="translate(2,-38) scale(1,1)"><path fill="none" stroke="#000000" d="M 384 225 C 384 215.6111584 421.1603616 208 467 208 C 512.8396384 208 550 215.6111584 550 225 C 550 234.3888416 512.8396384 242 467 242 C 421.1603616 242 384 234.3888416 384 225 Z" stroke-miterlimit="10"/></g><g transform="translate(2,-38) scale(1,1)"><g><path fill="none" stroke="none"/><text fill="#000000" stroke="none" font-family="Arial" font-size="13px" font-style="normal" font-weight="bold" text-decoration="none" x="416.412353515625" y="232">Quản lý tài khoản</text></g></g><g transform="translate(2,-38) scale(1,1)"><path fill="#C0C0C0" stroke="none" d="M 311 832 C 311 822.6111584 350.8466528 815 400 815 C 449.1533472 815 489 822.6111584 489 832 C 489 841.3888416 449.1533472 849 400 849 C 350.8466528 849 311 841.3888416 311 832 Z" opacity="0.2"/></g><g transform="translate(2,-38) scale(1,1)"><path fill="#ffffff" stroke="none" d="M 304 825 C 304 815.6111584 343.8466528 808 393 808 C 442.1533472 808 482 815.6111584 482 825 C 482 834.3888416 442.1533472 842 393 842 C 343.8466528 842 304 834.3888416 304 825 Z"/></g><g transform="translate(2,-38) scale(1,1)"><path fill="none" stroke="#000000" d="M 304 825 C 304 815.6111584 343.8466528 808 393 808 C 442.1533472 808 482 815.6111584 482 825 C 482 834.3888416 442.1533472 842 393 842 C 343.8466528 842 304 834.3888416 304 825 Z" stroke-miterlimit="10"/></g><g transform="translate(2,-38) scale(1,1)"><g><path fill="none" stroke="none"/><text fill="#000000" stroke="none" font-family="Arial" font-size="13px" font-style="normal" font-weight="bold" text-decoration="none" x="338.0673828125" y="832">Quản lý nhập hàng</text></g></g><g transform="translate(2,-38) scale(1,1)"><path fill="#ffffff" stroke="none" d="M 648 792 L 773 792 L 783 802 L 783 862 L 648 862 L 648 792"/></g><g transform="translate(2,-38) scale(1,1)"><path fill="none" stroke="#000000" d="M 648 792 L 773 792 L 783 802 L 783 862 L 648 862 L 648 792 L 648 792" stroke-miterlimit="10"/></g><g transform="translate(2,-38) scale(1,1)"><path fill="none" stroke="#000000" d="M 773 792 L 773 802 L 783 802 L 773 792" stroke-miterlimit="10"/></g><g transform="translate(2,-38) scale(1,1)"><g><path fill="none" stroke="none"/><text fill="#000000" stroke="none" font-family="Arial" font-size="13px" font-style="normal" font-weight="normal" text-decoration="none" x="653" y="810">Quản lý đợt giá nhập</text><text fill="#000000" stroke="none" font-family="Arial" font-size="13px" font-style="normal" font-weight="normal" text-decoration="none" x="653" y="823">các sản phẩm áo</text><text fill="#000000" stroke="none" font-family="Arial" font-size="13px" font-style="normal" font-weight="normal" text-decoration="none" x="653" y="836">nhập</text></g></g><g transform="translate(2,-38) scale(1,1)"><path fill="none" stroke="#000000" d="M 483 826 L 647 827" stroke-miterlimit="10" stroke-dasharray="3"/></g><g transform="translate(2,-38) scale(1,1)"><path fill="#C0C0C0" stroke="none" d="M 239 912 C 239 902.6111584 304.1425616 895 384.5 895 C 464.8574384 895 530 902.6111584 530 912 C 530 921.3888416 464.8574384 929 384.5 929 C 304.1425616 929 239 921.3888416 239 912 Z" opacity="0.2"/></g><g transform="translate(2,-38) scale(1,1)"><path fill="#ffffff" stroke="none" d="M 232 905 C 232 895.6111584 297.1425616 888 377.5 888 C 457.8574384 888 523 895.6111584 523 905 C 523 914.3888416 457.8574384 922 377.5 922 C 297.1425616 922 232 914.3888416 232 905 Z"/></g><g transform="translate(2,-38) scale(1,1)"><path fill="none" stroke="#000000" d="M 232 905 C 232 895.6111584 297.1425616 888 377.5 888 C 457.8574384 888 523 895.6111584 523 905 C 523 914.3888416 457.8574384 922 377.5 922 C 297.1425616 922 232 914.3888416 232 905 Z" stroke-miterlimit="10"/></g><g transform="translate(2,-38) scale(1,1)"><g><path fill="none" stroke="none"/><text fill="#000000" stroke="none" font-family="Arial" font-size="13px" font-style="normal" font-weight="bold" text-decoration="none" x="285.735107421875" y="912">Quản lý khuyến mại &amp; tích điểm</text></g></g><g transform="translate(2,-38) scale(1,1)"><path fill="#C0C0C0" stroke="none" d="M 391 296 C 391 286.6111584 428.1603616 279 474 279 C 519.8396384 279 557 286.6111584 557 296 C 557 305.3888416 519.8396384 313 474 313 C 428.1603616 313 391 305.3888416 391 296 Z" opacity="0.2"/></g><g transform="translate(2,-38) scale(1,1)"><path fill="#ffffff" stroke="none" d="M 384 289 C 384 279.6111584 421.1603616 272 467 272 C 512.8396384 272 550 279.6111584 550 289 C 550 298.3888416 512.8396384 306 467 306 C 421.1603616 306 384 298.3888416 384 289 Z"/></g><g transform="translate(2,-38) scale(1,1)"><path fill="none" stroke="#000000" d="M 384 289 C 384 279.6111584 421.1603616 272 467 272 C 512.8396384 272 550 279.6111584 550 289 C 550 298.3888416 512.8396384 306 467 306 C 421.1603616 306 384 298.3888416 384 289 Z" stroke-miterlimit="10"/></g><g transform="translate(2,-38) scale(1,1)"><g><path fill="none" stroke="none"/><text fill="#000000" stroke="none" font-family="Arial" font-size="13px" font-style="normal" font-weight="bold" text-decoration="none" x="443.148681640625" y="296">Báo cáo</text></g></g><g transform="translate(2,-38) scale(1,1)"><path fill="none" stroke="#000000" d="M 105 570 L 319 549" stroke-miterlimit="10"/></g><g transform="translate(2,-38) scale(1,1)"><path fill="none" stroke="#000000" d="M 103 535 L 446 243" stroke-miterlimit="10"/></g><g transform="translate(2,-38) scale(1,1)"><path fill="none" stroke="#000000" d="M 105 612 L 369 807" stroke-miterlimit="10"/></g><g transform="translate(2,-38) scale(1,1)"><path fill="none" stroke="#000000" d="M 96 616 L 359 887" stroke-miterlimit="10"/></g><g transform="translate(2,-38) scale(1,1)"><path fill="none" stroke="#000000" d="M 105 541 L 441 307" stroke-miterlimit="10"/></g><g transform="translate(2,-38) scale(1,1)"><path fill="#ffffff" stroke="none" d="M 648 880 L 773 880 L 783 890 L 783 928 L 648 928 L 648 880"/></g><g transform="translate(2,-38) scale(1,1)"><path fill="none" stroke="#000000" d="M 648 880 L 773 880 L 783 890 L 783 928 L 648 928 L 648 880 L 648 880" stroke-miterlimit="10"/></g><g transform="translate(2,-38) scale(1,1)"><path fill="none" stroke="#000000" d="M 773 880 L 773 890 L 783 890 L 773 880" stroke-miterlimit="10"/></g><g transform="translate(2,-38) scale(1,1)"><g><path fill="none" stroke="none"/><text fill="#000000" stroke="none" font-family="Arial" font-size="13px" font-style="normal" font-weight="normal" text-decoration="none" x="653" y="898">Coupons</text></g></g><g transform="translate(2,-38) scale(1,1)"><g><path fill="none" stroke="none"/><text fill="#000000" stroke="none" font-family="Arial" font-size="13px" font-style="normal" font-weight="normal" text-decoration="none" x="653" y="913">Promotions</text></g></g><g transform="translate(2,-38) scale(1,1)"><g><path fill="none" stroke="none"/></g></g><g transform="translate(2,-38) scale(1,1)"><path fill="none" stroke="#000000" d="M 524 905 L 647 904" stroke-miterlimit="10" stroke-dasharray="3"/></g><g transform="translate(2,-38) scale(1,1)"><path fill="#C0C0C0" stroke="none" d="M 1255 352 C 1255 342.6111584 1277.6096176 335 1305.5 335 C 1333.3903824 335 1356 342.6111584 1356 352 C 1356 361.3888416 1333.3903824 369 1305.5 369 C 1277.6096176 369 1255 361.3888416 1255 352 Z" opacity="0.2"/></g><g transform="translate(2,-38) scale(1,1)"><path fill="#ffffff" stroke="none" d="M 1248 345 C 1248 335.6111584 1270.6096176 328 1298.5 328 C 1326.3903824 328 1349 335.6111584 1349 345 C 1349 354.3888416 1326.3903824 362 1298.5 362 C 1270.6096176 362 1248 354.3888416 1248 345 Z"/></g><g transform="translate(2,-38) scale(1,1)"><path fill="none" stroke="#000000" d="M 1248 345 C 1248 335.6111584 1270.6096176 328 1298.5 328 C 1326.3903824 328 1349 335.6111584 1349 345 C 1349 354.3888416 1326.3903824 362 1298.5 362 C 1270.6096176 362 1248 354.3888416 1248 345 Z" stroke-miterlimit="10"/></g><g transform="translate(2,-38) scale(1,1)"><g><path fill="none" stroke="none"/><text fill="#000000" stroke="none" font-family="Arial" font-size="13px" font-style="normal" font-weight="bold" text-decoration="none" x="1272.119140625" y="352">Giỏ hàng</text></g></g><g transform="translate(2,-38) scale(1,1)"><path fill="none" stroke="#000000" d="M 1728 759 L 1716 368" stroke-miterlimit="10"/></g><g transform="translate(2,-38) scale(1,1)"><path fill="#FFFFFF" stroke="none" d="M 1725.0385756549401 388.057521036507 L 1716 368 L 1708.2084289991699 388.57404727658184"/></g><g transform="translate(2,-38) scale(1,1)"><path fill="none" stroke="#000000" d="M 1725.0385756549401 388.057521036507 L 1716 368 L 1708.2084289991699 388.57404727658184 L 1725.0385756549401 388.057521036507" stroke-miterlimit="10"/></g><g transform="translate(2,-38) scale(1,1)"><path fill="#C0C0C0" stroke="none" d="M 1223 792 C 1223 782.6111584 1245.6096176 775 1273.5 775 C 1301.3903824 775 1324 782.6111584 1324 792 C 1324 801.3888416 1301.3903824 809 1273.5 809 C 1245.6096176 809 1223 801.3888416 1223 792 Z" opacity="0.2"/></g><g transform="translate(2,-38) scale(1,1)"><path fill="#ffffff" stroke="none" d="M 1216 785 C 1216 775.6111584 1238.6096176 768 1266.5 768 C 1294.3903824 768 1317 775.6111584 1317 785 C 1317 794.3888416 1294.3903824 802 1266.5 802 C 1238.6096176 802 1216 794.3888416 1216 785 Z"/></g><g transform="translate(2,-38) scale(1,1)"><path fill="none" stroke="#000000" d="M 1216 785 C 1216 775.6111584 1238.6096176 768 1266.5 768 C 1294.3903824 768 1317 775.6111584 1317 785 C 1317 794.3888416 1294.3903824 802 1266.5 802 C 1238.6096176 802 1216 794.3888416 1216 785 Z" stroke-miterlimit="10"/></g><g transform="translate(2,-38) scale(1,1)"><g><path fill="none" stroke="none"/><text fill="#000000" stroke="none" font-family="Arial" font-size="13px" font-style="normal" font-weight="bold" text-decoration="none" x="1240.119140625" y="792">Đặt hàng</text></g></g><g transform="translate(2,-38) scale(1,1)"><path fill="#C0C0C0" stroke="none" d="M 1039 160 C 1039 150.6111584 1113.5445808 143 1205.5 143 C 1297.4554192 143 1372 150.6111584 1372 160 C 1372 169.3888416 1297.4554192 177 1205.5 177 C 1113.5445808 177 1039 169.3888416 1039 160 Z" opacity="0.2"/></g><g transform="translate(2,-38) scale(1,1)"><path fill="#ffffff" stroke="none" d="M 1032 153 C 1032 143.6111584 1106.5445808 136 1198.5 136 C 1290.4554192 136 1365 143.6111584 1365 153 C 1365 162.3888416 1290.4554192 170 1198.5 170 C 1106.5445808 170 1032 162.3888416 1032 153 Z"/></g><g transform="translate(2,-38) scale(1,1)"><path fill="none" stroke="#000000" d="M 1032 153 C 1032 143.6111584 1106.5445808 136 1198.5 136 C 1290.4554192 136 1365 143.6111584 1365 153 C 1365 162.3888416 1290.4554192 170 1198.5 170 C 1106.5445808 170 1032 162.3888416 1032 153 Z" stroke-miterlimit="10"/></g><g transform="translate(2,-38) scale(1,1)"><g><path fill="none" stroke="none"/><text fill="#000000" stroke="none" font-family="Arial" font-size="13px" font-style="normal" font-weight="bold" text-decoration="none" x="1091.19921875" y="160">Xem và tìm kiếm nâng cao sản phẩm</text></g></g><g transform="translate(2,-38) scale(1,1)"><path fill="#C0C0C0" stroke="none" d="M 991 1032 C 991 1022.6111584 1031.0705104 1015 1080.5 1015 C 1129.9294896 1015 1170 1022.6111584 1170 1032 C 1170 1041.3888416 1129.9294896 1049 1080.5 1049 C 1031.0705104 1049 991 1041.3888416 991 1032 Z" opacity="0.2"/></g><g transform="translate(2,-38) scale(1,1)"><path fill="#ffffff" stroke="none" d="M 984 1025 C 984 1015.6111584 1024.0705104 1008 1073.5 1008 C 1122.9294896 1008 1163 1015.6111584 1163 1025 C 1163 1034.3888416 1122.9294896 1042 1073.5 1042 C 1024.0705104 1042 984 1034.3888416 984 1025 Z"/></g><g transform="translate(2,-38) scale(1,1)"><path fill="none" stroke="#000000" d="M 984 1025 C 984 1015.6111584 1024.0705104 1008 1073.5 1008 C 1122.9294896 1008 1163 1015.6111584 1163 1025 C 1163 1034.3888416 1122.9294896 1042 1073.5 1042 C 1024.0705104 1042 984 1034.3888416 984 1025 Z" stroke-miterlimit="10"/></g><g transform="translate(2,-38) scale(1,1)"><g><path fill="none" stroke="none"/><text fill="#000000" stroke="none" font-family="Arial" font-size="13px" font-style="normal" font-weight="bold" text-decoration="none" x="1018.640380859375" y="1032">Theo dõi đơn hàng</text></g></g><g transform="translate(2,-38) scale(1,1)"><path fill="#C0C0C0" stroke="none" d="M 1279 888 C 1279 878.6111584 1309.6684912 871 1347.5 871 C 1385.3315088 871 1416 878.6111584 1416 888 C 1416 897.3888416 1385.3315088 905 1347.5 905 C 1309.6684912 905 1279 897.3888416 1279 888 Z" opacity="0.2"/></g><g transform="translate(2,-38) scale(1,1)"><path fill="#ffffff" stroke="none" d="M 1272 881 C 1272 871.6111584 1302.6684912 864 1340.5 864 C 1378.3315088 864 1409 871.6111584 1409 881 C 1409 890.3888416 1378.3315088 898 1340.5 898 C 1302.6684912 898 1272 890.3888416 1272 881 Z"/></g><g transform="translate(2,-38) scale(1,1)"><path fill="none" stroke="#000000" d="M 1272 881 C 1272 871.6111584 1302.6684912 864 1340.5 864 C 1378.3315088 864 1409 871.6111584 1409 881 C 1409 890.3888416 1378.3315088 898 1340.5 898 C 1302.6684912 898 1272 890.3888416 1272 881 Z" stroke-miterlimit="10"/></g><g transform="translate(2,-38) scale(1,1)"><g><path fill="none" stroke="none"/><text fill="#000000" stroke="none" font-family="Arial" font-size="13px" font-style="normal" font-weight="bold" text-decoration="none" x="1299.376708984375" y="888">Hủy đơn hàng</text></g></g><g transform="translate(2,-38) scale(1,1)"><path fill="#C0C0C0" stroke="none" d="M 1023 896 C 1023 886.6111584 1063.294368 879 1113 879 C 1162.705632 879 1203 886.6111584 1203 896 C 1203 905.3888416 1162.705632 913 1113 913 C 1063.294368 913 1023 905.3888416 1023 896 Z" opacity="0.2"/></g><g transform="translate(2,-38) scale(1,1)"><path fill="#ffffff" stroke="none" d="M 1016 889 C 1016 879.6111584 1056.294368 872 1106 872 C 1155.705632 872 1196 879.6111584 1196 889 C 1196 898.3888416 1155.705632 906 1106 906 C 1056.294368 906 1016 898.3888416 1016 889 Z"/></g><g transform="translate(2,-38) scale(1,1)"><path fill="none" stroke="#000000" d="M 1016 889 C 1016 879.6111584 1056.294368 872 1106 872 C 1155.705632 872 1196 879.6111584 1196 889 C 1196 898.3888416 1155.705632 906 1106 906 C 1056.294368 906 1016 898.3888416 1016 889 Z" stroke-miterlimit="10"/></g><g transform="translate(2,-38) scale(1,1)"><g><path fill="none" stroke="none"/><text fill="#000000" stroke="none" font-family="Arial" font-size="13px" font-style="normal" font-weight="bold" text-decoration="none" x="1050.416748046875" y="896">Đánh giá đơn hàng</text></g></g><g transform="translate(2,-38) scale(1,1)"><path fill="#C0C0C0" stroke="none" d="M 1191 680 C 1191 670.6111584 1241.36796 663 1303.5 663 C 1365.63204 663 1416 670.6111584 1416 680 C 1416 689.3888416 1365.63204 697 1303.5 697 C 1241.36796 697 1191 689.3888416 1191 680 Z" opacity="0.2"/></g><g transform="translate(2,-38) scale(1,1)"><path fill="#ffffff" stroke="none" d="M 1184 673 C 1184 663.6111584 1234.36796 656 1296.5 656 C 1358.63204 656 1409 663.6111584 1409 673 C 1409 682.3888416 1358.63204 690 1296.5 690 C 1234.36796 690 1184 682.3888416 1184 673 Z"/></g><g transform="translate(2,-38) scale(1,1)"><path fill="none" stroke="#000000" d="M 1184 673 C 1184 663.6111584 1234.36796 656 1296.5 656 C 1358.63204 656 1409 663.6111584 1409 673 C 1409 682.3888416 1358.63204 690 1296.5 690 C 1234.36796 690 1184 682.3888416 1184 673 Z" stroke-miterlimit="10"/></g><g transform="translate(2,-38) scale(1,1)"><g><path fill="none" stroke="none"/><text fill="#000000" stroke="none" font-family="Arial" font-size="13px" font-style="normal" font-weight="bold" text-decoration="none" x="1227.846923828125" y="680">Quản lý thông tin profile</text></g></g><g transform="translate(2,-38) scale(1,1)"><path fill="#C0C0C0" stroke="none" d="M 1175 736 C 1175 726.6111584 1228.9496816 719 1295.5 719 C 1362.0503184 719 1416 726.6111584 1416 736 C 1416 745.3888416 1362.0503184 753 1295.5 753 C 1228.9496816 753 1175 745.3888416 1175 736 Z" opacity="0.2"/></g><g transform="translate(2,-38) scale(1,1)"><path fill="#ffffff" stroke="none" d="M 1168 729 C 1168 719.6111584 1221.9496816 712 1288.5 712 C 1355.0503184 712 1409 719.6111584 1409 729 C 1409 738.3888416 1355.0503184 746 1288.5 746 C 1221.9496816 746 1168 738.3888416 1168 729 Z"/></g><g transform="translate(2,-38) scale(1,1)"><path fill="none" stroke="#000000" d="M 1168 729 C 1168 719.6111584 1221.9496816 712 1288.5 712 C 1355.0503184 712 1409 719.6111584 1409 729 C 1409 738.3888416 1355.0503184 746 1288.5 746 C 1221.9496816 746 1168 738.3888416 1168 729 Z" stroke-miterlimit="10"/></g><g transform="translate(2,-38) scale(1,1)"><g><path fill="none" stroke="none"/><text fill="#000000" stroke="none" font-family="Arial" font-size="13px" font-style="normal" font-weight="bold" text-decoration="none" x="1212.972412109375" y="736">Quản lý địa chỉ nhận hàng</text></g></g><g transform="translate(2,-38) scale(1,1)"><path fill="#C0C0C0" stroke="none" d="M 1239 1008 C 1239 998.6111584 1300.1131248 991 1375.5 991 C 1450.8868752 991 1512 998.6111584 1512 1008 C 1512 1017.3888416 1450.8868752 1025 1375.5 1025 C 1300.1131248 1025 1239 1017.3888416 1239 1008 Z" opacity="0.2"/></g><g transform="translate(2,-38) scale(1,1)"><path fill="#ffffff" stroke="none" d="M 1232 1001 C 1232 991.6111584 1293.1131248 984 1368.5 984 C 1443.8868752 984 1505 991.6111584 1505 1001 C 1505 1010.3888416 1443.8868752 1018 1368.5 1018 C 1293.1131248 1018 1232 1010.3888416 1232 1001 Z"/></g><g transform="translate(2,-38) scale(1,1)"><path fill="none" stroke="#000000" d="M 1232 1001 C 1232 991.6111584 1293.1131248 984 1368.5 984 C 1443.8868752 984 1505 991.6111584 1505 1001 C 1505 1010.3888416 1443.8868752 1018 1368.5 1018 C 1293.1131248 1018 1232 1010.3888416 1232 1001 Z" stroke-miterlimit="10"/></g><g transform="translate(2,-38) scale(1,1)"><g><path fill="none" stroke="none"/><text fill="#000000" stroke="none" font-family="Arial" font-size="13px" font-style="normal" font-weight="bold" text-decoration="none" x="1282.498779296875" y="1008">Xem và sử dụng điểm tích lũy</text></g></g><g transform="translate(2,-38) scale(1,1)"><path fill="none" stroke="#000000" d="M 1358 691 L 1647 775" stroke-miterlimit="10"/></g><g transform="translate(2,-38) scale(1,1)"><path fill="none" stroke="#000000" d="M 1401 747 L 1647 786" stroke-miterlimit="10"/></g><g transform="translate(2,-38) scale(1,1)"><path fill="none" stroke="#000000" d="M 1318 787 L 1647 797" stroke-miterlimit="10"/></g><g transform="translate(2,-38) scale(1,1)"><path fill="none" stroke="#000000" d="M 1410 866 L 1647 816" stroke-miterlimit="10"/></g><g transform="translate(2,-38) scale(1,1)"><path fill="none" stroke="#000000" d="M 1197 876 L 1647 811" stroke-miterlimit="10"/></g><g transform="translate(2,-38) scale(1,1)"><path fill="none" stroke="#000000" d="M 1125 1007 L 1647 827" stroke-miterlimit="10"/></g><g transform="translate(2,-38) scale(1,1)"><path fill="none" stroke="#000000" d="M 1400 983 L 1656 840" stroke-miterlimit="10"/></g><g transform="translate(2,-38) scale(1,1)"><path fill="#C0C0C0" stroke="none" d="M 839 608 C 839 598.6111584 863.1766208 591 893 591 C 922.8233792 591 947 598.6111584 947 608 C 947 617.3888416 922.8233792 625 893 625 C 863.1766208 625 839 617.3888416 839 608 Z" opacity="0.2"/></g><g transform="translate(2,-38) scale(1,1)"><path fill="#ffffff" stroke="none" d="M 832 601 C 832 591.6111584 856.1766208 584 886 584 C 915.8233792 584 940 591.6111584 940 601 C 940 610.3888416 915.8233792 618 886 618 C 856.1766208 618 832 610.3888416 832 601 Z"/></g><g transform="translate(2,-38) scale(1,1)"><path fill="none" stroke="#000000" d="M 832 601 C 832 591.6111584 856.1766208 584 886 584 C 915.8233792 584 940 591.6111584 940 601 C 940 610.3888416 915.8233792 618 886 618 C 856.1766208 618 832 610.3888416 832 601 Z" stroke-miterlimit="10"/></g><g transform="translate(2,-38) scale(1,1)"><g><path fill="none" stroke="none"/><text fill="#000000" stroke="none" font-family="Arial" font-size="13px" font-style="normal" font-weight="bold" text-decoration="none" x="854.195068359375" y="608">Đăng nhập</text></g></g><g transform="translate(2,-38) scale(1,1)"><path fill="#C0C0C0" stroke="none" d="M 863 384 C 863 374.6111584 885.6096176 367 913.5 367 C 941.3903824 367 964 374.6111584 964 384 C 964 393.3888416 941.3903824 401 913.5 401 C 885.6096176 401 863 393.3888416 863 384 Z" opacity="0.2"/></g><g transform="translate(2,-38) scale(1,1)"><path fill="#ffffff" stroke="none" d="M 856 377 C 856 367.6111584 878.6096176 360 906.5 360 C 934.3903824 360 957 367.6111584 957 377 C 957 386.3888416 934.3903824 394 906.5 394 C 878.6096176 394 856 386.3888416 856 377 Z"/></g><g transform="translate(2,-38) scale(1,1)"><path fill="none" stroke="#000000" d="M 856 377 C 856 367.6111584 878.6096176 360 906.5 360 C 934.3903824 360 957 367.6111584 957 377 C 957 386.3888416 934.3903824 394 906.5 394 C 878.6096176 394 856 386.3888416 856 377 Z" stroke-miterlimit="10"/></g><g transform="translate(2,-38) scale(1,1)"><g><path fill="none" stroke="none"/><text fill="#000000" stroke="none" font-family="Arial" font-size="13px" font-style="normal" font-weight="bold" text-decoration="none" x="882.655029296875" y="384">Đăng ký</text></g></g><g transform="translate(2,-38) scale(1,1)"><path fill="#C0C0C0" stroke="none" d="M 1215 552 C 1215 542.6111584 1243.6537728 535 1279 535 C 1314.3462272 535 1343 542.6111584 1343 552 C 1343 561.3888416 1314.3462272 569 1279 569 C 1243.6537728 569 1215 561.3888416 1215 552 Z" opacity="0.2"/></g><g transform="translate(2,-38) scale(1,1)"><path fill="#ffffff" stroke="none" d="M 1208 545 C 1208 535.6111584 1236.6537728 528 1272 528 C 1307.3462272 528 1336 535.6111584 1336 545 C 1336 554.3888416 1307.3462272 562 1272 562 C 1236.6537728 562 1208 554.3888416 1208 545 Z"/></g><g transform="translate(2,-38) scale(1,1)"><path fill="none" stroke="#000000" d="M 1208 545 C 1208 535.6111584 1236.6537728 528 1272 528 C 1307.3462272 528 1336 535.6111584 1336 545 C 1336 554.3888416 1307.3462272 562 1272 562 C 1236.6537728 562 1208 554.3888416 1208 545 Z" stroke-miterlimit="10"/></g><g transform="translate(2,-38) scale(1,1)"><g><path fill="none" stroke="none"/><text fill="#000000" stroke="none" font-family="Arial" font-size="13px" font-style="normal" font-weight="bold" text-decoration="none" x="1233.682373046875" y="552">Tự design áo</text></g></g><g transform="translate(2,-38) scale(1,1)"><path fill="#C0C0C0" stroke="none" d="M 1247 632 C 1247 622.6111584 1281.4740704 615 1324 615 C 1366.5259296 615 1401 622.6111584 1401 632 C 1401 641.3888416 1366.5259296 649 1324 649 C 1281.4740704 649 1247 641.3888416 1247 632 Z" opacity="0.2"/></g><g transform="translate(2,-38) scale(1,1)"><path fill="#ffffff" stroke="none" d="M 1240 625 C 1240 615.6111584 1274.4740704 608 1317 608 C 1359.5259296 608 1394 615.6111584 1394 625 C 1394 634.3888416 1359.5259296 642 1317 642 C 1274.4740704 642 1240 634.3888416 1240 625 Z"/></g><g transform="translate(2,-38) scale(1,1)"><path fill="none" stroke="#000000" d="M 1240 625 C 1240 615.6111584 1274.4740704 608 1317 608 C 1359.5259296 608 1394 615.6111584 1394 625 C 1394 634.3888416 1359.5259296 642 1317 642 C 1274.4740704 642 1240 634.3888416 1240 625 Z" stroke-miterlimit="10"/></g><g transform="translate(2,-38) scale(1,1)"><g><path fill="none" stroke="none"/><text fill="#000000" stroke="none" font-family="Arial" font-size="13px" font-style="normal" font-weight="bold" text-decoration="none" x="1270.458984375" y="632">Liên hệ &amp; hỗ trợ</text></g></g><g transform="translate(2,-38) scale(1,1)"><path fill="none" stroke="#000000" d="M 1304 563 L 1657 759" stroke-miterlimit="10"/></g><g transform="translate(2,-38) scale(1,1)"><path fill="none" stroke="#000000" d="M 1360 643 L 1647 764" stroke-miterlimit="10"/></g><g transform="translate(2,-38) scale(1,1)"><path fill="none" stroke="#000000" d="M 1207 554 L 941 593" stroke-miterlimit="10" stroke-dasharray="3"/></g><g transform="translate(2,-38) scale(1,1)"><path fill="none" stroke="#000000" d="M 950.4445180543024 587.3607554830496 L 941 593 L 951.6658307999407 595.6907347225314" stroke-miterlimit="10"/></g><g transform="translate(2,-38) scale(1,1)"><g><path fill="none" stroke="none"/><text fill="#000000" stroke="none" font-family="Arial" font-size="13px" font-style="normal" font-weight="normal" text-decoration="none" x="1050.5" y="608.5">«include»</text></g></g><g transform="translate(2,-38) scale(1,1)"><path fill="none" stroke="#000000" d="M 1239 621 L 941 604" stroke-miterlimit="10" stroke-dasharray="3"/></g><g transform="translate(2,-38) scale(1,1)"><path fill="none" stroke="#000000" d="M 951.3859290941804 600.3761240569444 L 941 604 L 950.906428144931 608.7814936379042" stroke-miterlimit="10"/></g><g transform="translate(2,-38) scale(1,1)"><g><path fill="none" stroke="none"/><text fill="#000000" stroke="none" font-family="Arial" font-size="13px" font-style="normal" font-weight="normal" text-decoration="none" x="1060.5" y="647.5">«include»</text></g></g><g transform="translate(2,-38) scale(1,1)"><path fill="none" stroke="#000000" d="M 1194 655 L 941 611" stroke-miterlimit="10" stroke-dasharray="3"/></g><g transform="translate(2,-38) scale(1,1)"><path fill="none" stroke="#000000" d="M 951.7336504475937 608.5940182733711 L 941 611 L 950.2911230126897 616.8885510240693" stroke-miterlimit="10"/></g><g transform="translate(2,-38) scale(1,1)"><g><path fill="none" stroke="none"/><text fill="#000000" stroke="none" font-family="Arial" font-size="13px" font-style="normal" font-weight="normal" text-decoration="none" x="1033.5" y="668.5">«include»</text></g></g><g transform="translate(2,-38) scale(1,1)"><path fill="none" stroke="#000000" d="M 1231 711 L 941 619" stroke-miterlimit="10" stroke-dasharray="3"/></g><g transform="translate(2,-38) scale(1,1)"><path fill="none" stroke="#000000" d="M 951.9598176288694 618.0606398231116 L 941 619 L 949.4139893169958 626.085533414887" stroke-miterlimit="10"/></g><g transform="translate(2,-38) scale(1,1)"><g><path fill="none" stroke="none"/><text fill="#000000" stroke="none" font-family="Arial" font-size="13px" font-style="normal" font-weight="normal" text-decoration="none" x="1048.5" y="699.5">«include»</text></g></g><g transform="translate(2,-38) scale(1,1)"><path fill="none" stroke="#000000" d="M 1229 767 L 923 619" stroke-miterlimit="10" stroke-dasharray="3"/></g><g transform="translate(2,-38) scale(1,1)"><path fill="none" stroke="#000000" d="M 933.9816359646069 619.6353515096794 L 923 619 L 930.3159278981643 627.214450620027" stroke-miterlimit="10"/></g><g transform="translate(2,-38) scale(1,1)"><g><path fill="none" stroke="none"/><text fill="#000000" stroke="none" font-family="Arial" font-size="13px" font-style="normal" font-weight="normal" text-decoration="none" x="1034.5" y="726.5">«include»</text></g></g><g transform="translate(2,-38) scale(1,1)"><path fill="none" stroke="#000000" d="M 1065 1007 L 894 619" stroke-miterlimit="10" stroke-dasharray="3"/></g><g transform="translate(2,-38) scale(1,1)"><path fill="none" stroke="#000000" d="M 901.9505328075217 626.601909501995 L 894 619 L 894.2465139034176 629.9972374210718" stroke-miterlimit="10"/></g><g transform="translate(2,-38) scale(1,1)"><g><path fill="none" stroke="none"/><text fill="#000000" stroke="none" font-family="Arial" font-size="13px" font-style="normal" font-weight="normal" text-decoration="none" x="923.5" y="831.5">«include»</text></g></g><g transform="translate(2,-38) scale(1,1)"><path fill="none" stroke="#000000" d="M 1346 983 L 908 619" stroke-miterlimit="10" stroke-dasharray="3"/></g><g transform="translate(2,-38) scale(1,1)"><path fill="none" stroke="#000000" d="M 918.5064549864346 622.2579753863438 L 908 619 L 913.1254490785166 628.7329220557617" stroke-miterlimit="10"/></g><g transform="translate(2,-38) scale(1,1)"><g><path fill="none" stroke="none"/><text fill="#000000" stroke="none" font-family="Arial" font-size="13px" font-style="normal" font-weight="normal" text-decoration="none" x="1079.5" y="830.5">«include»</text></g></g><g transform="translate(2,-38) scale(1,1)"><path fill="#C0C0C0" stroke="none" d="M 1183 264 C 1183 254.6111584 1229.5623808 247 1287 247 C 1344.4376192 247 1391 254.6111584 1391 264 C 1391 273.3888416 1344.4376192 281 1287 281 C 1229.5623808 281 1183 273.3888416 1183 264 Z" opacity="0.2"/></g><g transform="translate(2,-38) scale(1,1)"><path fill="#ffffff" stroke="none" d="M 1176 257 C 1176 247.6111584 1222.5623808 240 1280 240 C 1337.4376192 240 1384 247.6111584 1384 257 C 1384 266.3888416 1337.4376192 274 1280 274 C 1222.5623808 274 1176 266.3888416 1176 257 Z"/></g><g transform="translate(2,-38) scale(1,1)"><path fill="none" stroke="#000000" d="M 1176 257 C 1176 247.6111584 1222.5623808 240 1280 240 C 1337.4376192 240 1384 247.6111584 1384 257 C 1384 266.3888416 1337.4376192 274 1280 274 C 1222.5623808 274 1176 266.3888416 1176 257 Z" stroke-miterlimit="10"/></g><g transform="translate(2,-38) scale(1,1)"><g><path fill="none" stroke="none"/><text fill="#000000" stroke="none" font-family="Arial" font-size="13px" font-style="normal" font-weight="bold" text-decoration="none" x="1214.9619140625" y="264">Xem bản tin sản phẩm</text></g></g><g transform="translate(2,-38) scale(1,1)"><path fill="none" stroke="#000000" d="M 1350 343 L 1647 330" stroke-miterlimit="10"/></g><g transform="translate(2,-38) scale(1,1)"><path fill="none" stroke="#000000" d="M 1385 274 L 1647 316" stroke-miterlimit="10"/></g><g transform="translate(2,-38) scale(1,1)"><path fill="none" stroke="#000000" d="M 1251 171 L 1647 304" stroke-miterlimit="10"/></g><g transform="translate(2,-38) scale(1,1)"><path fill="none" stroke="#000000" d="M 568 555 L 831 593" stroke-miterlimit="10" stroke-dasharray="3"/></g><g transform="translate(2,-38) scale(1,1)"><path fill="none" stroke="#000000" d="M 820.3398043606956 595.712974185604 L 831 593 L 821.5437409308479 587.3804658184972" stroke-miterlimit="10"/></g><g transform="translate(2,-38) scale(1,1)"><g><path fill="none" stroke="none"/><text fill="#000000" stroke="none" font-family="Arial" font-size="13px" font-style="normal" font-weight="normal" text-decoration="none" x="675.5" y="550.5">«include»</text></g></g><g transform="translate(2,-38) scale(1,1)"><path fill="none" stroke="#000000" d="M 487 243 L 866 583" stroke-miterlimit="10" stroke-dasharray="3"/></g><g transform="translate(2,-38) scale(1,1)"><path fill="none" stroke="#000000" d="M 855.6242450043399 579.3470959128341 L 866 583 L 861.2462265336976 573.0802400315795" stroke-miterlimit="10"/></g><g transform="translate(2,-38) scale(1,1)"><g><path fill="none" stroke="none"/><text fill="#000000" stroke="none" font-family="Arial" font-size="13px" font-style="normal" font-weight="normal" text-decoration="none" x="668.5" y="396.5">«include»</text></g></g><g transform="translate(2,-38) scale(1,1)"><path fill="none" stroke="#000000" d="M 433 807 L 846 619" stroke-miterlimit="10" stroke-dasharray="3"/></g><g transform="translate(2,-38) scale(1,1)"><path fill="none" stroke="#000000" d="M 838.4945511635988 627.0416564067463 L 846 619 L 835.0065364547495 619.3791560091146" stroke-miterlimit="10"/></g><g transform="translate(2,-38) scale(1,1)"><g><path fill="none" stroke="none"/><text fill="#000000" stroke="none" font-family="Arial" font-size="13px" font-style="normal" font-weight="normal" text-decoration="none" x="598.5" y="691.5">«include»</text></g></g><g transform="translate(2,-38) scale(1,1)"><path fill="none" stroke="#000000" d="M 407 887 L 856 619" stroke-miterlimit="10" stroke-dasharray="3"/></g><g transform="translate(2,-38) scale(1,1)"><path fill="none" stroke="#000000" d="M 849.4310832921522 627.8232269202008 L 856 619 L 845.1161108636094 620.5940380380529" stroke-miterlimit="10"/></g><g transform="translate(2,-38) scale(1,1)"><g><path fill="none" stroke="none"/><text fill="#000000" stroke="none" font-family="Arial" font-size="13px" font-style="normal" font-weight="normal" text-decoration="none" x="587.5" y="733.5">«include»</text></g></g><g transform="translate(2,-38) scale(1,1)"><path fill="none" stroke="#000000" d="M 491 307 L 862 583" stroke-miterlimit="10" stroke-dasharray="3"/></g><g transform="translate(2,-38) scale(1,1)"><path fill="none" stroke="#000000" d="M 851.3336031494731 580.3115100470578 L 862 583 L 856.3587679330429 573.5566689792884" stroke-miterlimit="10"/></g><g transform="translate(2,-38) scale(1,1)"><g><path fill="none" stroke="none"/><text fill="#000000" stroke="none" font-family="Arial" font-size="13px" font-style="normal" font-weight="normal" text-decoration="none" x="665.5" y="426.5">«include»</text></g></g><g transform="translate(2,-38) scale(1,1)"><path fill="#C0C0C0" stroke="none" d="M 303 712 C 303 702.6111584 355.38267840000003 695 420 695 C 484.61732159999997 695 537 702.6111584 537 712 C 537 721.3888416 484.61732159999997 729 420 729 C 355.38267840000003 729 303 721.3888416 303 712 Z" opacity="0.2"/></g><g transform="translate(2,-38) scale(1,1)"><path fill="#ffffff" stroke="none" d="M 296 705 C 296 695.6111584 348.38267840000003 688 413 688 C 477.61732159999997 688 530 695.6111584 530 705 C 530 714.3888416 477.61732159999997 722 413 722 C 348.38267840000003 722 296 714.3888416 296 705 Z"/></g><g transform="translate(2,-38) scale(1,1)"><path fill="none" stroke="#000000" d="M 296 705 C 296 695.6111584 348.38267840000003 688 413 688 C 477.61732159999997 688 530 695.6111584 530 705 C 530 714.3888416 477.61732159999997 722 413 722 C 348.38267840000003 722 296 714.3888416 296 705 Z" stroke-miterlimit="10"/></g><g transform="translate(2,-38) scale(1,1)"><g><path fill="none" stroke="none"/><text fill="#000000" stroke="none" font-family="Arial" font-size="13px" font-style="normal" font-weight="bold" text-decoration="none" x="343.2646484375" y="712">Quản lý các bản thiết kế</text></g></g><g transform="translate(2,-38) scale(1,1)"><path fill="none" stroke="#000000" d="M 105 593 L 364 687" stroke-miterlimit="10"/></g><g transform="translate(2,-38) scale(1,1)"><path fill="none" stroke="#000000" d="M 495 687 L 831 613" stroke-miterlimit="10" stroke-dasharray="3"/></g><g transform="translate(2,-38) scale(1,1)"><path fill="none" stroke="#000000" d="M 821.9805740482616 619.2968210631324 L 831 613 L 820.1697778734566 611.074827620775" stroke-miterlimit="10"/></g><g transform="translate(2,-38) scale(1,1)"><g><path fill="none" stroke="none"/><text fill="#000000" stroke="none" font-family="Arial" font-size="13px" font-style="normal" font-weight="normal" text-decoration="none" x="628.5" y="626.5">«include»</text></g></g><g transform="translate(2,-38) scale(1,1)"><path fill="#C0C0C0" stroke="none" d="M 359 352 C 359 342.6111584 400.6375136 335 452 335 C 503.3624864 335 545 342.6111584 545 352 C 545 361.3888416 503.3624864 369 452 369 C 400.6375136 369 359 361.3888416 359 352 Z" opacity="0.2"/></g><g transform="translate(2,-38) scale(1,1)"><path fill="#ffffff" stroke="none" d="M 352 345 C 352 335.6111584 393.6375136 328 445 328 C 496.3624864 328 538 335.6111584 538 345 C 538 354.3888416 496.3624864 362 445 362 C 393.6375136 362 352 354.3888416 352 345 Z"/></g><g transform="translate(2,-38) scale(1,1)"><path fill="none" stroke="#000000" d="M 352 345 C 352 335.6111584 393.6375136 328 445 328 C 496.3624864 328 538 335.6111584 538 345 C 538 354.3888416 496.3624864 362 445 362 C 393.6375136 362 352 354.3888416 352 345 Z" stroke-miterlimit="10"/></g><g transform="translate(2,-38) scale(1,1)"><g><path fill="none" stroke="none"/><text fill="#000000" stroke="none" font-family="Arial" font-size="13px" font-style="normal" font-weight="bold" text-decoration="none" x="387.963134765625" y="352">Xử lý hủy đơn hàng</text></g></g><g transform="translate(2,-38) scale(1,1)"><path fill="#C0C0C0" stroke="none" d="M 391 408 C 391 398.6111584 421.4446336 391 459 391 C 496.5553664 391 527 398.6111584 527 408 C 527 417.3888416 496.5553664 425 459 425 C 421.4446336 425 391 417.3888416 391 408 Z" opacity="0.2"/></g><g transform="translate(2,-38) scale(1,1)"><path fill="#ffffff" stroke="none" d="M 384 401 C 384 391.6111584 414.4446336 384 452 384 C 489.5553664 384 520 391.6111584 520 401 C 520 410.3888416 489.5553664 418 452 418 C 414.4446336 418 384 410.3888416 384 401 Z"/></g><g transform="translate(2,-38) scale(1,1)"><path fill="none" stroke="#000000" d="M 384 401 C 384 391.6111584 414.4446336 384 452 384 C 489.5553664 384 520 391.6111584 520 401 C 520 410.3888416 489.5553664 418 452 418 C 414.4446336 418 384 410.3888416 384 401 Z" stroke-miterlimit="10"/></g><g transform="translate(2,-38) scale(1,1)"><g><path fill="none" stroke="none"/><text fill="#000000" stroke="none" font-family="Arial" font-size="13px" font-style="normal" font-weight="bold" text-decoration="none" x="411.156005859375" y="408">Xử lý trả hàng</text></g></g><g transform="translate(2,-38) scale(1,1)"><path fill="none" stroke="#000000" d="M 105 546 L 415 363" stroke-miterlimit="10"/></g><g transform="translate(2,-38) scale(1,1)"><path fill="none" stroke="#000000" d="M 105 553 L 411 419" stroke-miterlimit="10"/></g><g transform="translate(2,-38) scale(1,1)"><path fill="none" stroke="#000000" d="M 476 363 L 855 583" stroke-miterlimit="10" stroke-dasharray="3"/></g><g transform="translate(2,-38) scale(1,1)"><path fill="none" stroke="#000000" d="M 844.0974966032368 581.5386924746767 L 855 583 L 848.3240663767943 574.2574654556844" stroke-miterlimit="10"/></g><g transform="translate(2,-38) scale(1,1)"><g><path fill="none" stroke="none"/><text fill="#000000" stroke="none" font-family="Arial" font-size="13px" font-style="normal" font-weight="normal" text-decoration="none" x="652.5" y="453.5">«include»</text></g></g><g transform="translate(2,-38) scale(1,1)"><path fill="none" stroke="#000000" d="M 491 419 L 847 583" stroke-miterlimit="10" stroke-dasharray="3"/></g><g transform="translate(2,-38) scale(1,1)"><path fill="none" stroke="#000000" d="M 836.0083626966393 582.5711534174434 L 847 583 L 839.5309790530652 574.9244983998362" stroke-miterlimit="10"/></g><g transform="translate(2,-38) scale(1,1)"><g><path fill="none" stroke="none"/><text fill="#000000" stroke="none" font-family="Arial" font-size="13px" font-style="normal" font-weight="normal" text-decoration="none" x="653.5" y="479.5">«include»</text></g></g><g transform="translate(2,-38) scale(1,1)"><path fill="none" stroke="#000000" d="M 1134 871 L 1238 803" stroke-miterlimit="10" stroke-dasharray="3"/></g><g transform="translate(2,-38) scale(1,1)"><path fill="none" stroke="#000000" d="M 1231.7978058579197 812.0847557933026 L 1238 803 L 1227.1904940370316 805.0382788907676" stroke-miterlimit="10"/></g><g transform="translate(2,-38) scale(1,1)"><g><path fill="none" stroke="none"/><text fill="#000000" stroke="none" font-family="Arial" font-size="13px" font-style="normal" font-weight="normal" text-decoration="none" x="1142.5" y="817.5">«extend»</text></g></g><g transform="translate(2,-38) scale(1,1)"><path fill="none" stroke="#000000" d="M 1326 863 L 1280 803" stroke-miterlimit="10" stroke-dasharray="3"/></g><g transform="translate(2,-38) scale(1,1)"><path fill="none" stroke="#000000" d="M 1289.5239920204554 808.503960028407 L 1280 803 L 1282.8425918821642 813.6263668010969" stroke-miterlimit="10"/></g><g transform="translate(2,-38) scale(1,1)"><g><path fill="none" stroke="none"/><text fill="#000000" stroke="none" font-family="Arial" font-size="13px" font-style="normal" font-weight="normal" text-decoration="none" x="1252.5" y="857.5">«extend»</text></g></g><g transform="translate(2,-38) scale(1,1)"><path fill="none" stroke="#000000" d="M 888 583 L 904 395" stroke-miterlimit="10" stroke-dasharray="3"/></g><g transform="translate(2,-38) scale(1,1)"><path fill="none" stroke="#000000" d="M 907.3325619990504 405.4830353677971 L 904 395 L 898.9438517922655 404.7691025842409" stroke-miterlimit="10"/></g><g transform="translate(2,-38) scale(1,1)"><g><path fill="none" stroke="none"/><text fill="#000000" stroke="none" font-family="Arial" font-size="13px" font-style="normal" font-weight="normal" text-decoration="none" x="839.5" y="492.5">«extend»</text></g></g><g transform="translate(2,-38) scale(1,1)"><path fill="#C0C0C0" stroke="none" d="M 367 472 C 367 462.6111584 405.055792 455 452 455 C 498.944208 455 537 462.6111584 537 472 C 537 481.3888416 498.944208 489 452 489 C 405.055792 489 367 481.3888416 367 472 Z" opacity="0.2"/></g><g transform="translate(2,-38) scale(1,1)"><path fill="#ffffff" stroke="none" d="M 360 465 C 360 455.6111584 398.055792 448 445 448 C 491.944208 448 530 455.6111584 530 465 C 530 474.3888416 491.944208 482 445 482 C 398.055792 482 360 474.3888416 360 465 Z"/></g><g transform="translate(2,-38) scale(1,1)"><path fill="none" stroke="#000000" d="M 360 465 C 360 455.6111584 398.055792 448 445 448 C 491.944208 448 530 455.6111584 530 465 C 530 474.3888416 491.944208 482 445 482 C 398.055792 482 360 474.3888416 360 465 Z" stroke-miterlimit="10"/></g><g transform="translate(2,-38) scale(1,1)"><g><path fill="none" stroke="none"/><text fill="#000000" stroke="none" font-family="Arial" font-size="13px" font-style="normal" font-weight="bold" text-decoration="none" x="393.034912109375" y="472">Quản lý đơn hàng</text></g></g><g transform="translate(2,-38) scale(1,1)"><path fill="#C0C0C0" stroke="none" d="M 351 640 C 351 630.6111584 389.27964959999997 623 436.5 623 C 483.72035040000003 623 522 630.6111584 522 640 C 522 649.3888416 483.72035040000003 657 436.5 657 C 389.27964959999997 657 351 649.3888416 351 640 Z" opacity="0.2"/></g><g transform="translate(2,-38) scale(1,1)"><path fill="#ffffff" stroke="none" d="M 344 633 C 344 623.6111584 382.27964959999997 616 429.5 616 C 476.72035040000003 616 515 623.6111584 515 633 C 515 642.3888416 476.72035040000003 650 429.5 650 C 382.27964959999997 650 344 642.3888416 344 633 Z"/></g><g transform="translate(2,-38) scale(1,1)"><path fill="none" stroke="#000000" d="M 344 633 C 344 623.6111584 382.27964959999997 616 429.5 616 C 476.72035040000003 616 515 623.6111584 515 633 C 515 642.3888416 476.72035040000003 650 429.5 650 C 382.27964959999997 650 344 642.3888416 344 633 Z" stroke-miterlimit="10"/></g><g transform="translate(2,-38) scale(1,1)"><g><path fill="none" stroke="none"/><text fill="#000000" stroke="none" font-family="Arial" font-size="13px" font-style="normal" font-weight="bold" text-decoration="none" x="376.747802734375" y="640">Quản lý sản phẩm</text></g></g><g transform="translate(2,-38) scale(1,1)"><path fill="none" stroke="#000000" d="M 105 561 L 381 483" stroke-miterlimit="10"/></g><g transform="translate(2,-38) scale(1,1)"><path fill="none" stroke="#000000" d="M 105 583 L 343 620" stroke-miterlimit="10"/></g><g transform="translate(2,-38) scale(1,1)"><path fill="none" stroke="#000000" d="M 516 627 L 831 605" stroke-miterlimit="10" stroke-dasharray="3"/></g><g transform="translate(2,-38) scale(1,1)"><path fill="none" stroke="#000000" d="M 821.1553042428753 609.9073379188367 L 831 605 L 820.5687369514354 601.508760791402" stroke-miterlimit="10"/></g><g transform="translate(2,-38) scale(1,1)"><g><path fill="none" stroke="none"/><text fill="#000000" stroke="none" font-family="Arial" font-size="13px" font-style="normal" font-weight="normal" text-decoration="none" x="642.5" y="592.5">«include»</text></g></g><g transform="translate(2,-38) scale(1,1)"><path fill="none" stroke="#000000" d="M 503 483 L 831 584" stroke-miterlimit="10" stroke-dasharray="3"/></g><g transform="translate(2,-38) scale(1,1)"><path fill="none" stroke="#000000" d="M 820.0485476957967 585.0323238003459 L 831 584 L 822.5261906522519 576.9861169714617" stroke-miterlimit="10"/></g><g transform="translate(2,-38) scale(1,1)"><g><path fill="none" stroke="none"/><text fill="#000000" stroke="none" font-family="Arial" font-size="13px" font-style="normal" font-weight="normal" text-decoration="none" x="647.5" y="510.5">«include»</text></g></g><g transform="translate(2,-38) scale(1,1)"><path fill="none" stroke="#000000" d="M 1092 871 L 900 619" stroke-miterlimit="10" stroke-dasharray="3"/></g><g transform="translate(2,-38) scale(1,1)"><path fill="none" stroke="#000000" d="M 909.5074040955607 624.532564266569 L 900 619 L 902.8106361972104 629.634863617693" stroke-miterlimit="10"/></g><g transform="translate(2,-38) scale(1,1)"><g><path fill="none" stroke="none"/><text fill="#000000" stroke="none" font-family="Arial" font-size="13px" font-style="normal" font-weight="normal" text-decoration="none" x="944.5" y="769.5">«include»</text></g></g><g transform="translate(2,-38) scale(1,1)"><path fill="none" stroke="#000000" d="M 1311 863 L 915 619" stroke-miterlimit="10" stroke-dasharray="3"/></g><g transform="translate(2,-38) scale(1,1)"><path fill="none" stroke="#000000" d="M 925.8603413224223 620.7472797029914 L 915 619 L 921.4439076684705 627.9149343217001" stroke-miterlimit="10"/></g><g transform="translate(2,-38) scale(1,1)"><g><path fill="none" stroke="none"/><text fill="#000000" stroke="none" font-family="Arial" font-size="13px" font-style="normal" font-weight="normal" text-decoration="none" x="1069.5" y="772.5">«include»</text></g></g><g transform="translate(2,-38) scale(1,1)"><path fill="#ffffff" stroke="none" d="M 648 632 L 781 632 L 791 642 L 791 759 L 648 759 L 648 632"/></g><g transform="translate(2,-38) scale(1,1)"><path fill="none" stroke="#000000" d="M 648 632 L 781 632 L 791 642 L 791 759 L 648 759 L 648 632 L 648 632" stroke-miterlimit="10"/></g><g transform="translate(2,-38) scale(1,1)"><path fill="none" stroke="#000000" d="M 781 632 L 781 642 L 791 642 L 781 632" stroke-miterlimit="10"/></g><g transform="translate(2,-38) scale(1,1)"><g><path fill="none" stroke="none"/><text fill="#000000" stroke="none" font-family="Arial" font-size="13px" font-style="normal" font-weight="normal" text-decoration="none" x="653" y="650">Lưu người dùng,</text></g></g><g transform="translate(2,-38) scale(1,1)"><g><path fill="none" stroke="none"/><text fill="#000000" stroke="none" font-family="Arial" font-size="13px" font-style="normal" font-weight="normal" text-decoration="none" x="653" y="665">sản phẩm được thết</text><text fill="#000000" stroke="none" font-family="Arial" font-size="13px" font-style="normal" font-weight="normal" text-decoration="none" x="653" y="678">kế, icon được chọn để</text><text fill="#000000" stroke="none" font-family="Arial" font-size="13px" font-style="normal" font-weight="normal" text-decoration="none" x="653" y="691">in vào</text></g></g><g transform="translate(2,-38) scale(1,1)"><g><path fill="none" stroke="none"/><text fill="#000000" stroke="none" font-family="Arial" font-size="13px" font-style="normal" font-weight="normal" text-decoration="none" x="653" y="706">vị trí của icon muốn in</text><text fill="#000000" stroke="none" font-family="Arial" font-size="13px" font-style="normal" font-weight="normal" text-decoration="none" x="653" y="719">lên áo</text></g></g><g transform="translate(2,-38) scale(1,1)"><g><path fill="none" stroke="none"/><text fill="#000000" stroke="none" font-family="Arial" font-size="13px" font-style="normal" font-weight="normal" text-decoration="none" x="653" y="734">Chủ của hàng có thể</text><text fill="#000000" stroke="none" font-family="Arial" font-size="13px" font-style="normal" font-weight="normal" text-decoration="none" x="653" y="747">thêm, xóa, sửa</text></g></g><g transform="translate(2,-38) scale(1,1)"><path fill="none" stroke="#000000" d="M 531 702 L 647 698" stroke-miterlimit="10" stroke-dasharray="3"/></g></g></svg>