<svg version="1.1" xmlns="http://www.w3.org/2000/svg" xmlns:xlink="http://www.w3.org/1999/xlink" width="1612" height="948"><defs/><g><g transform="translate(-454,-166) scale(1,1)"><rect fill="#ffffff" stroke="none" x="464" y="176" width="447" height="21"/></g><g transform="translate(-454,-166) scale(1,1)"><path fill="none" stroke="#000000" d="M 464 176 L 911 176 L 911 197 L 464 197 L 464 176 Z Z" stroke-miterlimit="10" stroke-width="2"/></g><g transform="translate(-454,-166) scale(1,1)"><path fill="none" stroke="#000000" d="M 464 1104 L 464 176 L 911 176 L 911 1104" stroke-miterlimit="10" stroke-width="2"/></g><g transform="translate(-454,-166) scale(1,1)"><g><path fill="none" stroke="none"/><text fill="#000000" stroke="none" font-family="Arial" font-size="13px" font-style="normal" font-weight="normal" text-decoration="none" x="652.8671875" y="193">Người dùng</text></g></g><g transform="translate(-454,-166) scale(1,1)"><path fill="#C0C0C0" stroke="none" d="M 625 247 L 737.3349609375 247 Q 747.3349609375 247 747.3349609375 257 L 747.3349609375 277 Q 747.3349609375 287 737.3349609375 287 L 625 287 Q 615 287 615 277 L 615 257 Q 615 247 625 247 Z" opacity="0.2"/></g><g transform="translate(-454,-166) scale(1,1)"><path fill="#ffffff" stroke="none" d="M 618 240 L 730.3349609375 240 Q 740.3349609375 240 740.3349609375 250 L 740.3349609375 270 Q 740.3349609375 280 730.3349609375 280 L 618 280 Q 608 280 608 270 L 608 250 Q 608 240 618 240 Z"/></g><g transform="translate(-454,-166) scale(1,1)"><path fill="none" stroke="#000000" d="M 618 240 L 730.3349609375 240 Q 740.3349609375 240 740.3349609375 250 L 740.3349609375 270 Q 740.3349609375 280 730.3349609375 280 L 618 280 Q 608 280 608 270 L 608 250 Q 608 240 618 240 Z" stroke-miterlimit="10"/></g><g transform="translate(-454,-166) scale(1,1)"><g><path fill="none" stroke="none"/><text fill="#000000" stroke="none" font-family="Arial" font-size="13px" font-style="normal" font-weight="bold" text-decoration="none" x="616.7783203125" y="259.5">Chọn hủy đơn hàng</text></g></g><g transform="translate(-454,-166) scale(1,1)"><path fill="none" stroke="#000000" d="M 741 260 L 919 260" stroke-miterlimit="10"/></g><g transform="translate(-454,-166) scale(1,1)"><path fill="none" stroke="#000000" d="M 908.8373251423759 264.209517756016 L 919 260 L 908.8373251423758 255.790482243984" stroke-miterlimit="10"/></g><g transform="translate(-454,-166) scale(1,1)"><path fill="none" stroke="#000000" d="M 673 220 L 674 239" stroke-miterlimit="10"/></g><g transform="translate(-454,-166) scale(1,1)"><path fill="none" stroke="#000000" d="M 669.2621621840279 229.07261903473304 L 674 239 L 677.6695611521266 228.63012435220153" stroke-miterlimit="10"/></g><g transform="translate(-454,-166) scale(1,1)"><rect fill="#ffffff" stroke="none" x="912" y="176" width="1144" height="21"/></g><g transform="translate(-454,-166) scale(1,1)"><path fill="none" stroke="#000000" d="M 912 176 L 2056 176 L 2056 197 L 912 197 L 912 176 Z Z" stroke-miterlimit="10" stroke-width="2"/></g><g transform="translate(-454,-166) scale(1,1)"><path fill="none" stroke="#000000" d="M 912 1104 L 912 176 L 2056 176 L 2056 1104" stroke-miterlimit="10" stroke-width="2"/></g><g transform="translate(-454,-166) scale(1,1)"><g><path fill="none" stroke="none"/><text fill="#000000" stroke="none" font-family="Arial" font-size="13px" font-style="normal" font-weight="normal" text-decoration="none" x="1457.619140625" y="193">Hệ thống</text></g></g><g transform="translate(-454,-166) scale(1,1)"><path fill="#C0C0C0" stroke="none" d="M 1097 351 L 1299.7763671875 351 Q 1309.7763671875 351 1309.7763671875 361 L 1309.7763671875 381 Q 1309.7763671875 391 1299.7763671875 391 L 1097 391 Q 1087 391 1087 381 L 1087 361 Q 1087 351 1097 351 Z" opacity="0.2"/></g><g transform="translate(-454,-166) scale(1,1)"><path fill="#ffffff" stroke="none" d="M 1090 344 L 1292.7763671875 344 Q 1302.7763671875 344 1302.7763671875 354 L 1302.7763671875 374 Q 1302.7763671875 384 1292.7763671875 384 L 1090 384 Q 1080 384 1080 374 L 1080 354 Q 1080 344 1090 344 Z"/></g><g transform="translate(-454,-166) scale(1,1)"><path fill="none" stroke="#000000" d="M 1090 344 L 1292.7763671875 344 Q 1302.7763671875 344 1302.7763671875 354 L 1302.7763671875 374 Q 1302.7763671875 384 1292.7763671875 384 L 1090 384 Q 1080 384 1080 374 L 1080 354 Q 1080 344 1090 344 Z" stroke-miterlimit="10"/></g><g transform="translate(-454,-166) scale(1,1)"><g><path fill="none" stroke="none"/><text fill="#000000" stroke="none" font-family="Arial" font-size="13px" font-style="normal" font-weight="bold" text-decoration="none" x="1092.025146484375" y="363.5">Hiện thị Form nhập lý do hủy hàng</text></g></g><g transform="translate(-454,-166) scale(1,1)"><path fill="#C0C0C0" stroke="none" d="M 1577 255 L 2013.3828125 255 Q 2023.3828125 255 2023.3828125 265 L 2023.3828125 285 Q 2023.3828125 295 2013.3828125 295 L 1577 295 Q 1567 295 1567 285 L 1567 265 Q 1567 255 1577 255 Z" opacity="0.2"/></g><g transform="translate(-454,-166) scale(1,1)"><path fill="#ffffff" stroke="none" d="M 1570 248 L 2006.3828125 248 Q 2016.3828125 248 2016.3828125 258 L 2016.3828125 278 Q 2016.3828125 288 2006.3828125 288 L 1570 288 Q 1560 288 1560 278 L 1560 258 Q 1560 248 1570 248 Z"/></g><g transform="translate(-454,-166) scale(1,1)"><path fill="none" stroke="#000000" d="M 1570 248 L 2006.3828125 248 Q 2016.3828125 248 2016.3828125 258 L 2016.3828125 278 Q 2016.3828125 288 2006.3828125 288 L 1570 288 Q 1560 288 1560 278 L 1560 258 Q 1560 248 1570 248 Z" stroke-miterlimit="10"/></g><g transform="translate(-454,-166) scale(1,1)"><g><path fill="none" stroke="none"/><text fill="#000000" stroke="none" font-family="Arial" font-size="13px" font-style="normal" font-weight="bold" text-decoration="none" x="1580.607177734375" y="267.5">Hiện thông báo đơn đã được giao cho đơn vị vận chuyển không thể hủy</text></g></g><g transform="translate(-454,-166) scale(1,1)"><path fill="none" stroke="#000000" d="M 1788 289 L 1792 1080 L 690 1084" stroke-miterlimit="10"/></g><g transform="translate(-454,-166) scale(1,1)"><path fill="none" stroke="#000000" d="M 700.1473284550854 1079.7536221052978 L 690 1084 L 700.1778873663427 1088.1726021566935" stroke-miterlimit="10"/></g><g transform="translate(-454,-166) scale(1,1)"><path fill="none" stroke="#000000" d="M 1191 385 L 1192 424 L 762 427" stroke-miterlimit="10"/></g><g transform="translate(-454,-166) scale(1,1)"><path fill="none" stroke="#000000" d="M 772.1330595189642 422.71968403209183 L 762 427 L 772.1917955465553 431.13851465349757" stroke-miterlimit="10"/></g><g transform="translate(-454,-166) scale(1,1)"><path fill="#C0C0C0" stroke="none" d="M 633 415 L 757.7763671875 415 Q 767.7763671875 415 767.7763671875 425 L 767.7763671875 445 Q 767.7763671875 455 757.7763671875 455 L 633 455 Q 623 455 623 445 L 623 425 Q 623 415 633 415 Z" opacity="0.2"/></g><g transform="translate(-454,-166) scale(1,1)"><path fill="#ffffff" stroke="none" d="M 626 408 L 750.7763671875 408 Q 760.7763671875 408 760.7763671875 418 L 760.7763671875 438 Q 760.7763671875 448 750.7763671875 448 L 626 448 Q 616 448 616 438 L 616 418 Q 616 408 626 408 Z"/></g><g transform="translate(-454,-166) scale(1,1)"><path fill="none" stroke="#000000" d="M 626 408 L 750.7763671875 408 Q 760.7763671875 408 760.7763671875 418 L 760.7763671875 438 Q 760.7763671875 448 750.7763671875 448 L 626 448 Q 616 448 616 438 L 616 418 Q 616 408 626 408 Z" stroke-miterlimit="10"/></g><g transform="translate(-454,-166) scale(1,1)"><g><path fill="none" stroke="none"/><text fill="#000000" stroke="none" font-family="Arial" font-size="13px" font-style="normal" font-weight="bold" text-decoration="none" x="624.781494140625" y="427.5">Nhập lý do nhận hàng</text></g></g><g transform="translate(-454,-166) scale(1,1)"><path fill="#C0C0C0" stroke="none" d="M 937 247 L 1104.2548828125 247 Q 1114.2548828125 247 1114.2548828125 257 L 1114.2548828125 277 Q 1114.2548828125 287 1104.2548828125 287 L 937 287 Q 927 287 927 277 L 927 257 Q 927 247 937 247 Z" opacity="0.2"/></g><g transform="translate(-454,-166) scale(1,1)"><path fill="#ffffff" stroke="none" d="M 930 240 L 1097.2548828125 240 Q 1107.2548828125 240 1107.2548828125 250 L 1107.2548828125 270 Q 1107.2548828125 280 1097.2548828125 280 L 930 280 Q 920 280 920 270 L 920 250 Q 920 240 930 240 Z"/></g><g transform="translate(-454,-166) scale(1,1)"><path fill="none" stroke="#000000" d="M 930 240 L 1097.2548828125 240 Q 1107.2548828125 240 1107.2548828125 250 L 1107.2548828125 270 Q 1107.2548828125 280 1097.2548828125 280 L 930 280 Q 920 280 920 270 L 920 250 Q 920 240 930 240 Z" stroke-miterlimit="10"/></g><g transform="translate(-454,-166) scale(1,1)"><g><path fill="none" stroke="none"/><text fill="#000000" stroke="none" font-family="Arial" font-size="13px" font-style="normal" font-weight="bold" text-decoration="none" x="930.95556640625" y="259.5">Kiểm tra trạng thái đơn hàng</text></g></g><g transform="translate(-454,-166) scale(1,1)"><path fill="#C0C0C0" stroke="none" d="M 671 216.5 C 671 211.2532944 675.2532944 207 680.5 207 C 685.7467056 207 690 211.2532944 690 216.5 C 690 221.7467056 685.7467056 226 680.5 226 C 675.2532944 226 671 221.7467056 671 216.5 Z" opacity="0.2"/></g><g transform="translate(-454,-166) scale(1,1)"><path fill="#000000" stroke="none" d="M 664 209.5 C 664 204.2532944 668.2532944 200 673.5 200 C 678.7467056 200 683 204.2532944 683 209.5 C 683 214.7467056 678.7467056 219 673.5 219 C 668.2532944 219 664 214.7467056 664 209.5 Z"/></g><g transform="translate(-454,-166) scale(1,1)"><path fill="none" stroke="#000000" d="M 1108 262 L 1167 263" stroke-miterlimit="10"/></g><g transform="translate(-454,-166) scale(1,1)"><path fill="none" stroke="#000000" d="M 1156.7674470502989 267.03668925377724 L 1167 263 L 1156.9101220755272 258.6188627653046" stroke-miterlimit="10"/></g><g transform="translate(-454,-166) scale(1,1)"><path fill="#C0C0C0" stroke="none" d="M 1175 271.5 L 1199.5 255 L 1223 271.5 L 1199.5 287 L 1175 271.5" opacity="0.2"/></g><g transform="translate(-454,-166) scale(1,1)"><path fill="#ffffff" stroke="none" d="M 1168 264 L 1192 248 L 1216 264 L 1192 280 L 1168 264"/></g><g transform="translate(-454,-166) scale(1,1)"><path fill="none" stroke="#000000" d="M 1168 264 L 1192 248 L 1216 264 L 1192 280 L 1168 264 L 1168 264" stroke-miterlimit="10"/></g><g transform="translate(-454,-166) scale(1,1)"><path fill="none" stroke="#000000" d="M 1217 264 L 1559 266" stroke-miterlimit="10"/></g><g transform="translate(-454,-166) scale(1,1)"><path fill="none" stroke="#000000" d="M 1548.8128822703482 270.150015947224 L 1559 266 L 1548.862115554303 261.7311243909319" stroke-miterlimit="10"/></g><g transform="translate(-454,-166) scale(1,1)"><g><path fill="none" stroke="none"/><text fill="#000000" stroke="none" font-family="Arial" font-size="13px" font-style="normal" font-weight="normal" text-decoration="none" x="1367.60546875" y="255.5">Sai</text></g></g><g transform="translate(-454,-166) scale(1,1)"><path fill="none" stroke="#000000" d="M 1192 281 L 1191 343" stroke-miterlimit="10"/></g><g transform="translate(-454,-166) scale(1,1)"><path fill="none" stroke="#000000" d="M 1186.954922475101 332.7707601544613 L 1191 343 L 1195.3728631128827 332.90653339055456" stroke-miterlimit="10"/></g><g transform="translate(-454,-166) scale(1,1)"><g><path fill="none" stroke="none"/><text fill="#000000" stroke="none" font-family="Arial" font-size="13px" font-style="normal" font-weight="normal" text-decoration="none" x="983.5" y="315.5">Trạng thái đơn hàng là chưa xử lý</text></g></g><g transform="translate(-454,-166) scale(1,1)"><path fill="#C0C0C0" stroke="none" d="M 1265 575 L 1435.84765625 575 Q 1445.84765625 575 1445.84765625 585 L 1445.84765625 605 Q 1445.84765625 615 1435.84765625 615 L 1265 615 Q 1255 615 1255 605 L 1255 585 Q 1255 575 1265 575 Z" opacity="0.2"/></g><g transform="translate(-454,-166) scale(1,1)"><path fill="#ffffff" stroke="none" d="M 1258 568 L 1428.84765625 568 Q 1438.84765625 568 1438.84765625 578 L 1438.84765625 598 Q 1438.84765625 608 1428.84765625 608 L 1258 608 Q 1248 608 1248 598 L 1248 578 Q 1248 568 1258 568 Z"/></g><g transform="translate(-454,-166) scale(1,1)"><path fill="none" stroke="#000000" d="M 1258 568 L 1428.84765625 568 Q 1438.84765625 568 1438.84765625 578 L 1438.84765625 598 Q 1438.84765625 608 1428.84765625 608 L 1258 608 Q 1248 608 1248 598 L 1248 578 Q 1248 568 1258 568 Z" stroke-miterlimit="10"/></g><g transform="translate(-454,-166) scale(1,1)"><g><path fill="none" stroke="none"/><text fill="#000000" stroke="none" font-family="Arial" font-size="13px" font-style="normal" font-weight="bold" text-decoration="none" x="1258.571533203125" y="587.5">Cập nhật trạng thái đơn hàng</text></g></g><g transform="translate(-454,-166) scale(1,1)"><path fill="#C0C0C0" stroke="none" d="M 1217 663 L 1480.31396484375 663 Q 1490.31396484375 663 1490.31396484375 673 L 1490.31396484375 693 Q 1490.31396484375 703 1480.31396484375 703 L 1217 703 Q 1207 703 1207 693 L 1207 673 Q 1207 663 1217 663 Z" opacity="0.2"/></g><g transform="translate(-454,-166) scale(1,1)"><path fill="#ffffff" stroke="none" d="M 1210 656 L 1473.31396484375 656 Q 1483.31396484375 656 1483.31396484375 666 L 1483.31396484375 686 Q 1483.31396484375 696 1473.31396484375 696 L 1210 696 Q 1200 696 1200 686 L 1200 666 Q 1200 656 1210 656 Z"/></g><g transform="translate(-454,-166) scale(1,1)"><path fill="none" stroke="#000000" d="M 1210 656 L 1473.31396484375 656 Q 1483.31396484375 656 1483.31396484375 666 L 1483.31396484375 686 Q 1483.31396484375 696 1473.31396484375 696 L 1210 696 Q 1200 696 1200 686 L 1200 666 Q 1200 656 1210 656 Z" stroke-miterlimit="10"/></g><g transform="translate(-454,-166) scale(1,1)"><g><path fill="none" stroke="none"/><text fill="#000000" stroke="none" font-family="Arial" font-size="13px" font-style="normal" font-weight="bold" text-decoration="none" x="1214.170654296875" y="675.5">Kiểm tra trạng thái thanh toán của đơn hàng</text></g></g><g transform="translate(-454,-166) scale(1,1)"><path fill="none" stroke="#000000" d="M 688 449 L 688 488 L 1095 485" stroke-miterlimit="10"/></g><g transform="translate(-454,-166) scale(1,1)"><path fill="none" stroke="#000000" d="M 1084.8686287526086 489.28431052183817 L 1095 485 L 1084.8065736655506 480.8655037109518" stroke-miterlimit="10"/></g><g transform="translate(-454,-166) scale(1,1)"><path fill="none" stroke="#000000" d="M 1343 609 L 1341 655" stroke-miterlimit="10"/></g><g transform="translate(-454,-166) scale(1,1)"><path fill="none" stroke="#000000" d="M 1337.2358937491852 644.6640673312673 L 1341 655 L 1345.6469830248905 645.0297668649936" stroke-miterlimit="10"/></g><g transform="translate(-454,-166) scale(1,1)"><path fill="none" stroke="#000000" d="M 1340 697 L 1339 711" stroke-miterlimit="10"/></g><g transform="translate(-454,-166) scale(1,1)"><path fill="none" stroke="#000000" d="M 1335.5252404957619 700.5632358277238 L 1339 711 L 1343.922880711422 701.1630672716996" stroke-miterlimit="10"/></g><g transform="translate(-454,-166) scale(1,1)"><path fill="none" stroke="#000000" d="M 1351 721 L 1807 723" stroke-miterlimit="10"/></g><g transform="translate(-454,-166) scale(1,1)"><path fill="none" stroke="#000000" d="M 1796.8189602694729 727.164904561383 L 1807 723 L 1796.855885508666 718.7459500253633" stroke-miterlimit="10"/></g><g transform="translate(-454,-166) scale(1,1)"><g><path fill="none" stroke="none"/><text fill="#000000" stroke="none" font-family="Arial" font-size="13px" font-style="normal" font-weight="normal" text-decoration="none" x="1569.689453125" y="713.5">Sai</text></g></g><g transform="translate(-454,-166) scale(1,1)"><path fill="#C0C0C0" stroke="none" d="M 1335 728.5 L 1346.5 719 L 1357 728.5 L 1346.5 737 L 1335 728.5" opacity="0.2"/></g><g transform="translate(-454,-166) scale(1,1)"><path fill="#ffffff" stroke="none" d="M 1328 721 L 1339 712 L 1350 721 L 1339 730 L 1328 721"/></g><g transform="translate(-454,-166) scale(1,1)"><path fill="none" stroke="#000000" d="M 1328 721 L 1339 712 L 1350 721 L 1339 730 L 1328 721 L 1328 721" stroke-miterlimit="10"/></g><g transform="translate(-454,-166) scale(1,1)"><path fill="#C0C0C0" stroke="none" d="M 1825 711 L 2044.2294921875 711 Q 2054.2294921875 711 2054.2294921875 721 L 2054.2294921875 741 Q 2054.2294921875 751 2044.2294921875 751 L 1825 751 Q 1815 751 1815 741 L 1815 721 Q 1815 711 1825 711 Z" opacity="0.2"/></g><g transform="translate(-454,-166) scale(1,1)"><path fill="#ffffff" stroke="none" d="M 1818 704 L 2037.2294921875 704 Q 2047.2294921875 704 2047.2294921875 714 L 2047.2294921875 734 Q 2047.2294921875 744 2037.2294921875 744 L 1818 744 Q 1808 744 1808 734 L 1808 714 Q 1808 704 1818 704 Z"/></g><g transform="translate(-454,-166) scale(1,1)"><path fill="none" stroke="#000000" d="M 1818 704 L 2037.2294921875 704 Q 2047.2294921875 704 2047.2294921875 714 L 2047.2294921875 734 Q 2047.2294921875 744 2037.2294921875 744 L 1818 744 Q 1808 744 1808 734 L 1808 714 Q 1808 704 1818 704 Z" stroke-miterlimit="10"/></g><g transform="translate(-454,-166) scale(1,1)"><g><path fill="none" stroke="none"/><text fill="#000000" stroke="none" font-family="Arial" font-size="13px" font-style="normal" font-weight="bold" text-decoration="none" x="1820.717041015625" y="723.5">Hiển thị đã hủy thành công đơn hàng</text></g></g><g transform="translate(-454,-166) scale(1,1)"><path fill="#C0C0C0" stroke="none" d="M 945 903 L 1292.86474609375 903 Q 1302.86474609375 903 1302.86474609375 913 L 1302.86474609375 933 Q 1302.86474609375 943 1292.86474609375 943 L 945 943 Q 935 943 935 933 L 935 913 Q 935 903 945 903 Z" opacity="0.2"/></g><g transform="translate(-454,-166) scale(1,1)"><path fill="#ffffff" stroke="none" d="M 938 896 L 1285.86474609375 896 Q 1295.86474609375 896 1295.86474609375 906 L 1295.86474609375 926 Q 1295.86474609375 936 1285.86474609375 936 L 938 936 Q 928 936 928 926 L 928 906 Q 928 896 938 896 Z"/></g><g transform="translate(-454,-166) scale(1,1)"><path fill="none" stroke="#000000" d="M 938 896 L 1285.86474609375 896 Q 1295.86474609375 896 1295.86474609375 906 L 1295.86474609375 926 Q 1295.86474609375 936 1285.86474609375 936 L 938 936 Q 928 936 928 926 L 928 906 Q 928 896 938 896 Z" stroke-miterlimit="10"/></g><g transform="translate(-454,-166) scale(1,1)"><g><path fill="none" stroke="none"/><text fill="#000000" stroke="none" font-family="Arial" font-size="13px" font-style="normal" font-weight="bold" text-decoration="none" x="971.058837890625" y="915.5">Cộng số tiền từ đơn hàng vào ví của khách hàng</text></g></g><g transform="translate(-454,-166) scale(1,1)"><path fill="#C0C0C0" stroke="none" d="M 671 1091.5 C 671 1084.59644 676.59644 1079 683.5 1079 C 690.40356 1079 696 1084.59644 696 1091.5 C 696 1098.40356 690.40356 1104 683.5 1104 C 676.59644 1104 671 1098.40356 671 1091.5 Z" opacity="0.2"/></g><g transform="translate(-454,-166) scale(1,1)"><path fill="none" stroke="#000000" d="M 664 1084.5 C 664 1077.59644 669.59644 1072 676.5 1072 C 683.40356 1072 689 1077.59644 689 1084.5 C 689 1091.40356 683.40356 1097 676.5 1097 C 669.59644 1097 664 1091.40356 664 1084.5 Z" stroke-miterlimit="10"/></g><g transform="translate(-454,-166) scale(1,1)"><path fill="#000000" stroke="none" d="M 669 1084.5 C 669 1080.357864 672.357864 1077 676.5 1077 C 680.642136 1077 684 1080.357864 684 1084.5 C 684 1088.642136 680.642136 1092 676.5 1092 C 672.357864 1092 669 1088.642136 669 1084.5 Z"/></g><g transform="translate(-454,-166) scale(1,1)"><path fill="#C0C0C0" stroke="none" d="M 1113 471 L 1239.287109375 471 Q 1249.287109375 471 1249.287109375 481 L 1249.287109375 501 Q 1249.287109375 511 1239.287109375 511 L 1113 511 Q 1103 511 1103 501 L 1103 481 Q 1103 471 1113 471 Z" opacity="0.2"/></g><g transform="translate(-454,-166) scale(1,1)"><path fill="#ffffff" stroke="none" d="M 1106 464 L 1232.287109375 464 Q 1242.287109375 464 1242.287109375 474 L 1242.287109375 494 Q 1242.287109375 504 1232.287109375 504 L 1106 504 Q 1096 504 1096 494 L 1096 474 Q 1096 464 1106 464 Z"/></g><g transform="translate(-454,-166) scale(1,1)"><path fill="none" stroke="#000000" d="M 1106 464 L 1232.287109375 464 Q 1242.287109375 464 1242.287109375 474 L 1242.287109375 494 Q 1242.287109375 504 1232.287109375 504 L 1106 504 Q 1096 504 1096 494 L 1096 474 Q 1096 464 1106 464 Z" stroke-miterlimit="10"/></g><g transform="translate(-454,-166) scale(1,1)"><g><path fill="none" stroke="none"/><text fill="#000000" stroke="none" font-family="Arial" font-size="13px" font-style="normal" font-weight="bold" text-decoration="none" x="1105.16552734375" y="483.5">Lưu vào bảng cancels</text></g></g><g transform="translate(-454,-166) scale(1,1)"><path fill="#C0C0C0" stroke="none" d="M 1369 471 L 1658.3203125 471 Q 1668.3203125 471 1668.3203125 481 L 1668.3203125 501 Q 1668.3203125 511 1658.3203125 511 L 1369 511 Q 1359 511 1359 501 L 1359 481 Q 1359 471 1369 471 Z" opacity="0.2"/></g><g transform="translate(-454,-166) scale(1,1)"><path fill="#ffffff" stroke="none" d="M 1362 464 L 1651.3203125 464 Q 1661.3203125 464 1661.3203125 474 L 1661.3203125 494 Q 1661.3203125 504 1651.3203125 504 L 1362 504 Q 1352 504 1352 494 L 1352 474 Q 1352 464 1362 464 Z"/></g><g transform="translate(-454,-166) scale(1,1)"><path fill="none" stroke="#000000" d="M 1362 464 L 1651.3203125 464 Q 1661.3203125 464 1661.3203125 474 L 1661.3203125 494 Q 1661.3203125 504 1651.3203125 504 L 1362 504 Q 1352 504 1352 494 L 1352 474 Q 1352 464 1362 464 Z" stroke-miterlimit="10"/></g><g transform="translate(-454,-166) scale(1,1)"><g><path fill="none" stroke="none"/><text fill="#000000" stroke="none" font-family="Arial" font-size="13px" font-style="normal" font-weight="bold" text-decoration="none" x="1366.859375" y="483.5">Hiện thông báo hủy đơn hàng cho chủ cửa hàng</text></g></g><g transform="translate(-454,-166) scale(1,1)"><path fill="none" stroke="#000000" d="M 1243 484 L 1351 484" stroke-miterlimit="10"/></g><g transform="translate(-454,-166) scale(1,1)"><path fill="none" stroke="#000000" d="M 1340.837325142376 488.209517756016 L 1351 484 L 1340.837325142376 479.790482243984" stroke-miterlimit="10"/></g><g transform="translate(-454,-166) scale(1,1)"><path fill="#C0C0C0" stroke="none" d="M 1314 799 L 1377 799 Q 1380 799 1380 802 L 1380 801 Q 1380 804 1377 804 L 1314 804 Q 1311 804 1311 801 L 1311 802 Q 1311 799 1314 799 Z" opacity="0.2"/></g><g transform="translate(-454,-166) scale(1,1)"><path fill="#000000" stroke="none" d="M 1307 792 L 1370 792 Q 1373 792 1373 795 L 1373 795 Q 1373 798 1370 798 L 1307 798 Q 1304 798 1304 795 L 1304 795 Q 1304 792 1307 792 Z"/></g><g transform="translate(-454,-166) scale(1,1)"><path fill="#C0C0C0" stroke="none" d="M 1345 903 L 1747.2451171875 903 Q 1757.2451171875 903 1757.2451171875 913 L 1757.2451171875 933 Q 1757.2451171875 943 1747.2451171875 943 L 1345 943 Q 1335 943 1335 933 L 1335 913 Q 1335 903 1345 903 Z" opacity="0.2"/></g><g transform="translate(-454,-166) scale(1,1)"><path fill="#ffffff" stroke="none" d="M 1338 896 L 1740.2451171875 896 Q 1750.2451171875 896 1750.2451171875 906 L 1750.2451171875 926 Q 1750.2451171875 936 1740.2451171875 936 L 1338 936 Q 1328 936 1328 926 L 1328 906 Q 1328 896 1338 896 Z"/></g><g transform="translate(-454,-166) scale(1,1)"><path fill="none" stroke="#000000" d="M 1338 896 L 1740.2451171875 896 Q 1750.2451171875 896 1750.2451171875 906 L 1750.2451171875 926 Q 1750.2451171875 936 1740.2451171875 936 L 1338 936 Q 1328 936 1328 926 L 1328 906 Q 1328 896 1338 896 Z" stroke-miterlimit="10"/></g><g transform="translate(-454,-166) scale(1,1)"><g><path fill="none" stroke="none"/><text fill="#000000" stroke="none" font-family="Arial" font-size="13px" font-style="normal" font-weight="bold" text-decoration="none" x="1345.64599609375" y="915.5">Trừ số tiền đã thanh toán của khách hàng vào ví của chủ cửa hàng</text></g></g><g transform="translate(-454,-166) scale(1,1)"><path fill="none" stroke="#000000" d="M 1339 731 L 1338 791" stroke-miterlimit="10"/></g><g transform="translate(-454,-166) scale(1,1)"><path fill="none" stroke="#000000" d="M 1333.960421171936 780.7685874439617 L 1338 791 L 1342.3782876170303 780.9088852180466" stroke-miterlimit="10"/></g><g transform="translate(-454,-166) scale(1,1)"><g><path fill="none" stroke="none"/><text fill="#000000" stroke="none" font-family="Arial" font-size="13px" font-style="normal" font-weight="normal" text-decoration="none" x="1047.5" y="755.5">Trạng thái thanh toán đơn hàng là đã thanh toán</text></g></g><g transform="translate(-454,-166) scale(1,1)"><path fill="none" stroke="#000000" d="M 1331 798 L 1150 895" stroke-miterlimit="10"/></g><g transform="translate(-454,-166) scale(1,1)"><path fill="none" stroke="#000000" d="M 1156.9690652672773 886.4892932549388 L 1150 895 L 1160.9458517611463 893.9098948569006" stroke-miterlimit="10"/></g><g transform="translate(-454,-166) scale(1,1)"><path fill="none" stroke="#000000" d="M 1345 798 L 1504 895" stroke-miterlimit="10"/></g><g transform="translate(-454,-166) scale(1,1)"><path fill="none" stroke="#000000" d="M 1493.1320205498882 893.3008759103739 L 1504 895 L 1497.516640198882 886.1137158671778" stroke-miterlimit="10"/></g><g transform="translate(-454,-166) scale(1,1)"><path fill="none" stroke="#000000" d="M 1473 505 L 1376 567" stroke-miterlimit="10"/></g><g transform="translate(-454,-166) scale(1,1)"><path fill="none" stroke="#000000" d="M 1382.2958549014786 557.9798996092322 L 1376 567 L 1386.8300158474974 565.0736675409069" stroke-miterlimit="10"/></g><g transform="translate(-454,-166) scale(1,1)"><path fill="#C0C0C0" stroke="none" d="M 1273 1015 L 1482.2763671875 1015 Q 1492.2763671875 1015 1492.2763671875 1025 L 1492.2763671875 1045 Q 1492.2763671875 1055 1482.2763671875 1055 L 1273 1055 Q 1263 1055 1263 1045 L 1263 1025 Q 1263 1015 1273 1015 Z" opacity="0.2"/></g><g transform="translate(-454,-166) scale(1,1)"><path fill="#ffffff" stroke="none" d="M 1266 1008 L 1475.2763671875 1008 Q 1485.2763671875 1008 1485.2763671875 1018 L 1485.2763671875 1038 Q 1485.2763671875 1048 1475.2763671875 1048 L 1266 1048 Q 1256 1048 1256 1038 L 1256 1018 Q 1256 1008 1266 1008 Z"/></g><g transform="translate(-454,-166) scale(1,1)"><path fill="none" stroke="#000000" d="M 1266 1008 L 1475.2763671875 1008 Q 1485.2763671875 1008 1485.2763671875 1018 L 1485.2763671875 1038 Q 1485.2763671875 1048 1475.2763671875 1048 L 1266 1048 Q 1256 1048 1256 1038 L 1256 1018 Q 1256 1008 1266 1008 Z" stroke-miterlimit="10"/></g><g transform="translate(-454,-166) scale(1,1)"><g><path fill="none" stroke="none"/><text fill="#000000" stroke="none" font-family="Arial" font-size="13px" font-style="normal" font-weight="bold" text-decoration="none" x="1268.374267578125" y="1027.5">Thông báo cập nhật số tiền trong ví</text></g></g><g transform="translate(-454,-166) scale(1,1)"><path fill="none" stroke="#000000" d="M 1928 745 L 1936 1080 L 690 1084" stroke-miterlimit="10"/></g><g transform="translate(-454,-166) scale(1,1)"><path fill="none" stroke="#000000" d="M 700.149108859491 1079.757879143848 L 690 1084 L 700.1761361215446 1088.1768712735484" stroke-miterlimit="10"/></g><g transform="translate(-454,-166) scale(1,1)"><path fill="none" stroke="#000000" d="M 1369 1049 L 1368 1080 L 690 1084" stroke-miterlimit="10"/></g><g transform="translate(-454,-166) scale(1,1)"><path fill="none" stroke="#000000" d="M 700.1376635177543 1079.7305997609976 L 690 1084 L 700.1873324793896 1088.1494887581935" stroke-miterlimit="10"/></g><g transform="translate(-454,-166) scale(1,1)"><path fill="none" stroke="#000000" d="M 1160 937 L 1321 1007" stroke-miterlimit="10"/></g><g transform="translate(-454,-166) scale(1,1)"><path fill="none" stroke="#000000" d="M 1310.001670550849 1006.8082988577587 L 1321 1007 L 1313.3585598424215 999.0874534871416" stroke-miterlimit="10"/></g><g transform="translate(-454,-166) scale(1,1)"><path fill="none" stroke="#000000" d="M 1507 937 L 1402 1007" stroke-miterlimit="10"/></g><g transform="translate(-454,-166) scale(1,1)"><path fill="none" stroke="#000000" d="M 1408.1208362812704 997.8602317743891 L 1402 1007 L 1412.7908769318217 1004.8652927502162" stroke-miterlimit="10"/></g></g></svg>